<svg id="svg" version="1.1" xmlns="http://www.w3.org/2000/svg" xmlns:xlink="http://www.w3.org/1999/xlink" width="400" height="400" viewBox="0, 0, 400,400"><g id="svgg"><path id="path0" d="M309.200 0.800 C 309.200 1.540,308.933 1.600,305.661 1.600 C 301.696 1.600,299.785 2.261,299.184 3.842 C 298.883 4.633,298.540 4.800,297.215 4.800 C 295.651 4.800,295.603 4.842,295.354 6.400 C 295.115 7.893,295.009 8.000,293.773 8.000 C 292.531 8.000,292.441 8.094,292.324 9.500 C 292.206 10.932,292.141 10.994,290.899 10.870 C 289.926 10.772,289.533 10.924,289.339 11.470 C 288.925 12.640,287.523 14.000,286.730 14.000 C 286.290 14.000,286.000 14.290,286.000 14.730 C 286.000 15.628,284.392 17.200,283.474 17.200 C 283.088 17.200,282.800 17.512,282.800 17.930 C 282.800 18.828,281.192 20.400,280.274 20.400 C 279.888 20.400,279.600 20.712,279.600 21.130 C 279.600 21.920,278.033 23.600,277.296 23.600 C 277.047 23.600,276.607 24.093,276.318 24.696 C 276.029 25.299,275.299 26.029,274.696 26.318 C 273.815 26.741,273.600 27.114,273.600 28.222 C 273.600 29.604,273.159 29.873,271.295 29.629 C 271.017 29.592,270.675 29.886,270.535 30.281 C 270.125 31.441,268.720 32.800,267.930 32.800 C 267.490 32.800,267.200 33.090,267.200 33.530 C 267.200 34.314,265.843 35.724,264.700 36.128 C 264.215 36.299,264.000 36.802,264.000 37.763 C 264.000 39.079,263.921 39.158,262.500 39.276 C 261.080 39.393,260.999 39.475,260.982 40.800 C 260.964 42.122,260.880 42.207,259.482 42.324 C 258.084 42.441,258.000 42.526,258.000 43.824 C 258.000 44.852,257.823 45.211,257.300 45.243 C 254.978 45.384,255.003 45.367,254.876 46.900 C 254.771 48.173,254.604 48.408,253.776 48.450 C 253.239 48.477,252.575 48.523,252.300 48.550 C 252.025 48.578,251.745 49.264,251.677 50.077 C 251.562 51.465,251.465 51.562,250.077 51.677 C 249.264 51.745,248.578 52.025,248.550 52.300 C 248.523 52.575,248.478 53.239,248.450 53.776 C 248.408 54.604,248.173 54.771,246.900 54.876 C 245.620 54.982,245.391 55.146,245.339 56.000 C 245.306 56.550,245.261 57.225,245.239 57.500 C 245.216 57.795,244.637 58.000,243.824 58.000 C 242.526 58.000,242.441 58.084,242.324 59.482 C 242.207 60.880,242.122 60.964,240.800 60.982 C 239.475 60.999,239.393 61.080,239.276 62.500 C 239.175 63.721,238.989 64.009,238.276 64.046 C 237.794 64.072,237.130 64.117,236.800 64.146 C 236.410 64.181,236.157 64.717,236.077 65.677 C 235.962 67.065,235.865 67.162,234.477 67.277 C 233.664 67.345,232.978 67.625,232.950 67.900 C 232.923 68.175,232.878 68.839,232.850 69.376 C 232.808 70.204,232.573 70.371,231.300 70.476 C 229.881 70.593,229.793 70.681,229.676 72.100 C 229.559 73.508,229.470 73.600,228.219 73.600 C 226.857 73.600,226.400 74.111,226.400 75.633 C 226.400 76.122,226.122 76.400,225.633 76.400 C 224.111 76.400,223.600 76.857,223.600 78.219 C 223.600 79.470,223.508 79.559,222.100 79.676 C 220.681 79.793,220.593 79.881,220.476 81.300 C 220.371 82.573,220.204 82.808,219.376 82.850 C 218.839 82.877,218.175 82.923,217.900 82.950 C 217.625 82.978,217.345 83.664,217.277 84.477 C 217.162 85.865,217.065 85.962,215.677 86.077 C 214.717 86.157,214.181 86.410,214.146 86.800 C 214.117 87.130,214.072 87.794,214.046 88.276 C 214.009 88.989,213.721 89.175,212.500 89.276 C 211.081 89.393,210.993 89.481,210.876 90.900 C 210.758 92.319,210.677 92.400,209.376 92.400 C 208.070 92.400,208.000 92.471,208.000 93.800 C 208.000 94.632,207.797 95.216,207.500 95.239 C 207.225 95.261,206.550 95.306,206.000 95.339 C 205.149 95.391,204.982 95.621,204.877 96.877 C 204.762 98.265,204.665 98.362,203.277 98.477 C 201.889 98.593,201.793 98.689,201.677 100.077 C 201.562 101.465,201.465 101.562,200.077 101.677 C 198.689 101.793,198.593 101.889,198.477 103.277 C 198.362 104.665,198.265 104.762,196.877 104.877 C 195.621 104.982,195.391 105.149,195.339 106.000 C 195.306 106.550,195.261 107.225,195.239 107.500 C 195.216 107.797,194.632 108.000,193.800 108.000 C 192.471 108.000,192.400 108.070,192.400 109.376 C 192.400 110.677,192.319 110.758,190.900 110.876 C 189.481 110.993,189.393 111.081,189.276 112.500 C 189.175 113.721,188.989 114.009,188.276 114.046 C 187.794 114.072,187.130 114.117,186.800 114.146 C 186.410 114.181,186.157 114.717,186.077 115.677 C 185.962 117.065,185.865 117.162,184.477 117.277 C 183.664 117.345,182.978 117.625,182.950 117.900 C 182.923 118.175,182.878 118.839,182.850 119.376 C 182.808 120.204,182.573 120.371,181.300 120.476 C 179.767 120.603,179.784 120.578,179.643 122.900 C 179.611 123.423,179.251 123.600,178.218 123.600 C 176.963 123.600,176.813 123.725,176.581 124.963 C 176.363 126.123,176.123 126.363,174.963 126.581 C 173.725 126.813,173.600 126.963,173.600 128.218 C 173.600 129.251,173.423 129.611,172.900 129.643 C 170.578 129.784,170.603 129.767,170.476 131.300 C 170.371 132.573,170.204 132.808,169.376 132.850 C 168.839 132.878,168.175 132.922,167.900 132.950 C 167.625 132.978,167.345 133.664,167.277 134.477 C 167.162 135.865,167.065 135.962,165.677 136.077 C 164.717 136.157,164.181 136.410,164.146 136.800 C 164.117 137.130,164.072 137.794,164.046 138.276 C 164.009 138.989,163.721 139.175,162.500 139.276 C 161.081 139.393,160.993 139.481,160.876 140.900 C 160.758 142.319,160.677 142.400,159.376 142.400 C 158.070 142.400,158.000 142.471,158.000 143.800 C 158.000 144.632,157.797 145.216,157.500 145.239 C 157.225 145.261,156.550 145.306,156.000 145.339 C 155.149 145.391,154.982 145.621,154.877 146.877 C 154.762 148.265,154.665 148.362,153.277 148.477 C 151.889 148.593,151.793 148.689,151.677 150.077 C 151.562 151.465,151.465 151.562,150.077 151.677 C 148.689 151.793,148.593 151.889,148.477 153.277 C 148.362 154.665,148.265 154.762,146.877 154.877 C 145.621 154.982,145.391 155.149,145.339 156.000 C 145.306 156.550,145.261 157.225,145.239 157.500 C 145.216 157.797,144.632 158.000,143.800 158.000 C 142.467 158.000,142.400 158.067,142.400 159.400 C 142.400 160.614,142.272 160.800,141.433 160.800 C 139.696 160.800,139.200 161.209,139.200 162.643 C 139.200 163.770,139.047 164.008,138.300 164.046 C 137.805 164.072,137.130 164.117,136.800 164.146 C 136.410 164.181,136.157 164.717,136.077 165.677 C 135.962 167.065,135.865 167.162,134.477 167.277 C 133.089 167.393,132.993 167.489,132.877 168.877 C 132.762 170.265,132.665 170.362,131.277 170.477 C 129.769 170.603,129.783 170.582,129.643 172.900 C 129.611 173.422,129.252 173.600,128.232 173.600 C 126.813 173.600,125.888 175.249,126.632 176.452 C 126.817 176.751,126.751 176.817,126.452 176.632 C 125.249 175.888,123.600 176.813,123.600 178.232 C 123.600 179.252,123.422 179.611,122.900 179.643 C 120.582 179.783,120.603 179.769,120.477 181.277 C 120.362 182.665,120.265 182.762,118.877 182.877 C 117.489 182.993,117.393 183.089,117.277 184.477 C 117.162 185.865,117.065 185.962,115.677 186.077 C 114.717 186.157,114.181 186.410,114.146 186.800 C 114.117 187.130,114.072 187.805,114.046 188.300 C 114.008 189.052,113.771 189.200,112.608 189.200 C 111.151 189.200,110.398 190.376,110.944 191.799 C 111.125 192.270,110.838 192.400,109.612 192.400 C 108.098 192.400,108.044 192.447,107.924 193.882 C 107.807 195.280,107.722 195.364,106.400 195.382 C 105.075 195.399,104.993 195.480,104.876 196.900 C 104.775 198.121,104.589 198.409,103.876 198.446 C 103.394 198.472,102.730 198.517,102.400 198.546 C 102.010 198.581,101.757 199.117,101.677 200.077 C 101.562 201.465,101.465 201.562,100.077 201.677 C 99.117 201.757,98.581 202.010,98.546 202.400 C 98.517 202.730,98.472 203.394,98.446 203.876 C 98.409 204.589,98.121 204.775,96.900 204.876 C 95.480 204.993,95.399 205.075,95.382 206.400 C 95.364 207.722,95.280 207.807,93.882 207.924 C 92.447 208.044,92.400 208.098,92.400 209.612 C 92.400 210.838,92.270 211.125,91.799 210.944 C 90.388 210.403,89.200 211.152,89.200 212.583 C 89.200 213.876,89.117 213.959,87.700 214.076 C 86.286 214.193,86.193 214.285,86.077 215.677 C 85.962 217.065,85.865 217.162,84.477 217.277 C 83.089 217.393,82.993 217.489,82.877 218.877 C 82.762 220.265,82.665 220.362,81.277 220.477 C 79.769 220.603,79.783 220.582,79.643 222.900 C 79.611 223.422,79.252 223.600,78.232 223.600 C 76.813 223.600,75.888 225.249,76.632 226.452 C 76.817 226.751,76.751 226.817,76.452 226.632 C 75.249 225.888,73.600 226.813,73.600 228.232 C 73.600 229.252,73.422 229.611,72.900 229.643 C 70.582 229.783,70.603 229.769,70.477 231.277 C 70.362 232.665,70.265 232.762,68.877 232.877 C 67.489 232.993,67.393 233.089,67.277 234.477 C 67.162 235.865,67.065 235.962,65.677 236.077 C 64.169 236.203,64.183 236.182,64.043 238.500 C 64.011 239.021,63.653 239.200,62.643 239.200 C 61.209 239.200,60.800 239.696,60.800 241.433 C 60.800 242.272,60.614 242.400,59.400 242.400 L 58.000 242.400 58.000 245.400 C 58.000 247.512,57.852 248.412,57.500 248.439 C 57.225 248.461,56.550 248.506,56.000 248.539 C 55.030 248.598,54.997 248.698,54.884 251.875 C 54.770 255.106,54.754 255.152,53.684 255.275 C 51.724 255.501,51.647 256.364,51.623 278.510 L 51.600 298.820 50.593 299.203 C 50.039 299.413,49.425 300.009,49.228 300.527 C 49.031 301.045,43.805 306.542,37.616 312.742 C 31.426 318.942,26.470 324.189,26.602 324.403 C 26.734 324.616,26.596 324.697,26.296 324.581 C 25.581 324.307,24.231 325.803,24.623 326.437 C 24.810 326.740,24.757 326.820,24.480 326.649 C 23.951 326.322,14.000 336.041,14.000 336.885 C 14.000 337.569,12.354 339.200,11.664 339.200 C 11.398 339.200,11.006 339.657,10.794 340.217 C 10.581 340.776,9.867 341.541,9.206 341.917 C 8.270 342.449,8.005 342.879,8.003 343.865 C 8.000 345.028,7.872 345.151,6.400 345.400 L 4.800 345.670 4.800 348.591 L 4.800 351.511 3.415 351.771 C 1.562 352.118,1.529 352.374,1.677 365.115 C 1.809 376.409,1.803 376.380,3.900 376.394 C 4.752 376.400,4.800 376.559,4.800 379.357 C 4.800 382.514,4.985 382.800,7.033 382.800 C 7.895 382.800,8.000 382.974,8.000 384.400 C 8.000 385.556,8.167 386.000,8.600 386.000 C 9.369 386.000,10.686 387.311,10.868 388.259 C 10.946 388.662,11.338 389.054,11.741 389.132 C 12.689 389.314,14.000 390.631,14.000 391.400 C 14.000 391.833,14.444 392.000,15.600 392.000 C 17.026 392.000,17.200 392.105,17.200 392.967 C 17.200 395.015,17.486 395.200,20.643 395.200 L 23.600 395.200 23.600 396.410 C 23.600 398.245,24.551 398.400,35.800 398.400 C 46.920 398.400,47.791 398.261,48.195 396.424 L 48.464 395.200 51.427 395.200 L 54.391 395.200 54.646 393.600 C 54.887 392.097,54.985 392.000,56.264 392.000 C 57.199 392.000,57.703 391.781,57.873 391.300 C 58.246 390.248,59.252 389.200,59.888 389.200 C 60.623 389.200,95.200 354.636,95.200 353.901 C 95.200 353.203,96.863 351.600,97.588 351.600 C 97.883 351.600,98.831 350.880,99.693 350.000 L 101.262 348.400 121.531 348.377 C 143.633 348.353,144.499 348.276,144.725 346.316 C 144.848 345.246,144.894 345.230,148.125 345.116 L 151.400 345.000 151.524 343.500 L 151.648 342.000 154.581 342.000 C 157.641 342.000,158.000 341.789,158.000 339.993 C 158.000 339.448,158.346 339.217,159.300 339.125 C 160.483 339.011,160.611 338.867,160.723 337.523 C 160.838 336.135,160.935 336.038,162.323 335.923 C 163.711 335.807,163.807 335.711,163.923 334.323 C 164.038 332.935,164.135 332.838,165.523 332.723 C 166.911 332.607,167.007 332.511,167.123 331.123 C 167.238 329.735,167.335 329.638,168.723 329.523 C 170.111 329.407,170.207 329.311,170.323 327.923 C 170.438 326.535,170.535 326.438,171.923 326.323 C 173.261 326.212,173.412 326.080,173.524 324.924 C 173.631 323.812,173.812 323.631,174.924 323.524 C 176.080 323.412,176.212 323.261,176.323 321.923 C 176.438 320.535,176.535 320.438,177.923 320.323 C 179.311 320.207,179.407 320.111,179.523 318.723 C 179.638 317.335,179.735 317.238,181.123 317.123 C 182.511 317.007,182.607 316.911,182.723 315.523 C 182.838 314.135,182.935 314.038,184.323 313.923 C 185.711 313.807,185.807 313.711,185.923 312.323 C 186.038 310.935,186.135 310.838,187.523 310.723 C 188.861 310.612,189.012 310.480,189.124 309.324 C 189.231 308.212,189.412 308.031,190.524 307.924 C 191.680 307.812,191.812 307.661,191.923 306.323 C 192.038 304.935,192.135 304.838,193.523 304.723 C 194.911 304.607,195.007 304.511,195.123 303.123 C 195.238 301.735,195.335 301.638,196.723 301.523 C 198.111 301.407,198.207 301.311,198.323 299.923 C 198.438 298.535,198.535 298.438,199.923 298.323 C 201.311 298.207,201.407 298.111,201.523 296.723 C 201.638 295.335,201.735 295.238,203.123 295.123 C 204.511 295.007,204.607 294.911,204.723 293.523 C 204.838 292.135,204.935 292.038,206.323 291.923 C 207.661 291.812,207.812 291.680,207.924 290.524 C 208.031 289.412,208.212 289.231,209.324 289.124 C 210.480 289.012,210.612 288.861,210.723 287.523 C 210.838 286.135,210.935 286.038,212.323 285.923 C 213.711 285.807,213.807 285.711,213.923 284.323 C 214.038 282.935,214.135 282.838,215.523 282.723 C 216.911 282.607,217.007 282.511,217.123 281.123 C 217.238 279.735,217.335 279.638,218.723 279.523 C 220.111 279.407,220.207 279.311,220.323 277.923 C 220.438 276.535,220.535 276.438,221.923 276.323 C 223.261 276.212,223.412 276.080,223.524 274.924 C 223.631 273.812,223.812 273.631,224.924 273.524 C 226.080 273.412,226.212 273.261,226.323 271.923 C 226.438 270.535,226.535 270.438,227.923 270.323 C 229.311 270.207,229.407 270.111,229.523 268.723 C 229.638 267.335,229.735 267.238,231.123 267.123 C 232.511 267.007,232.607 266.911,232.723 265.523 C 232.838 264.135,232.935 264.038,234.323 263.923 C 235.711 263.807,235.807 263.711,235.923 262.323 C 236.038 260.935,236.135 260.838,237.523 260.723 C 238.861 260.612,239.012 260.480,239.124 259.324 C 239.231 258.212,239.412 258.031,240.524 257.924 C 241.680 257.812,241.812 257.661,241.923 256.323 C 242.038 254.935,242.135 254.838,243.523 254.723 C 244.911 254.607,245.007 254.511,245.123 253.123 C 245.238 251.735,245.335 251.638,246.723 251.523 C 248.111 251.407,248.207 251.311,248.323 249.923 C 248.438 248.535,248.535 248.438,249.923 248.323 C 251.311 248.207,251.407 248.111,251.523 246.723 C 251.638 245.335,251.735 245.238,253.123 245.123 C 254.511 245.007,254.607 244.911,254.723 243.523 C 254.838 242.135,254.935 242.038,256.323 241.923 C 257.661 241.812,257.812 241.680,257.924 240.524 C 258.031 239.412,258.212 239.231,259.324 239.124 C 260.480 239.012,260.612 238.861,260.723 237.523 C 260.838 236.135,260.935 236.038,262.323 235.923 C 263.711 235.807,263.807 235.711,263.923 234.323 C 264.038 232.935,264.135 232.838,265.523 232.723 C 266.911 232.607,267.007 232.511,267.123 231.123 C 267.238 229.735,267.335 229.638,268.723 229.523 C 270.111 229.407,270.207 229.311,270.323 227.923 C 270.438 226.535,270.535 226.438,271.923 226.323 C 273.261 226.212,273.412 226.080,273.524 224.924 C 273.631 223.812,273.812 223.631,274.924 223.524 C 276.080 223.412,276.212 223.261,276.323 221.923 C 276.438 220.535,276.535 220.438,277.923 220.323 C 279.311 220.207,279.407 220.111,279.523 218.723 C 279.638 217.335,279.735 217.238,281.123 217.123 C 282.511 217.007,282.607 216.911,282.723 215.523 C 282.838 214.135,282.935 214.038,284.323 213.923 C 285.711 213.807,285.807 213.711,285.923 212.323 C 286.038 210.935,286.135 210.838,287.523 210.723 C 288.861 210.612,289.012 210.480,289.124 209.324 C 289.231 208.212,289.412 208.031,290.524 207.924 C 291.680 207.812,291.812 207.661,291.923 206.323 C 292.038 204.935,292.135 204.838,293.523 204.723 C 294.911 204.607,295.007 204.511,295.123 203.123 C 295.238 201.735,295.335 201.638,296.723 201.523 C 298.111 201.407,298.207 201.311,298.323 199.923 C 298.438 198.535,298.535 198.438,299.923 198.323 C 301.311 198.207,301.407 198.111,301.523 196.723 C 301.638 195.335,301.735 195.238,303.123 195.123 C 304.511 195.007,304.607 194.911,304.723 193.523 C 304.838 192.135,304.935 192.038,306.323 191.923 C 307.661 191.812,307.812 191.680,307.924 190.524 C 308.031 189.412,308.212 189.231,309.324 189.124 C 310.480 189.012,310.612 188.861,310.723 187.523 C 310.838 186.135,310.935 186.038,312.323 185.923 C 313.711 185.807,313.807 185.711,313.923 184.323 C 314.038 182.935,314.135 182.838,315.523 182.723 C 316.911 182.607,317.007 182.511,317.123 181.123 C 317.238 179.735,317.335 179.638,318.723 179.523 C 320.111 179.407,320.207 179.311,320.323 177.923 C 320.438 176.535,320.535 176.438,321.923 176.323 C 323.261 176.212,323.412 176.080,323.524 174.924 C 323.631 173.812,323.812 173.631,324.924 173.524 C 326.080 173.412,326.212 173.261,326.323 171.923 C 326.438 170.535,326.535 170.438,327.923 170.323 C 329.311 170.207,329.407 170.111,329.523 168.723 C 329.638 167.335,329.735 167.238,331.123 167.123 C 332.511 167.007,332.607 166.911,332.723 165.523 C 332.838 164.135,332.935 164.038,334.323 163.923 C 335.711 163.807,335.807 163.711,335.923 162.323 C 336.038 160.935,336.135 160.838,337.523 160.723 C 338.861 160.612,339.012 160.480,339.124 159.324 C 339.231 158.212,339.412 158.031,340.524 157.924 C 341.680 157.812,341.812 157.661,341.923 156.323 C 342.038 154.935,342.135 154.838,343.523 154.723 C 344.911 154.607,345.007 154.511,345.123 153.123 C 345.238 151.735,345.335 151.638,346.723 151.523 C 348.111 151.407,348.207 151.311,348.323 149.923 C 348.438 148.535,348.535 148.438,349.923 148.323 C 351.311 148.207,351.407 148.111,351.523 146.723 C 351.638 145.335,351.735 145.238,353.123 145.123 C 354.511 145.007,354.607 144.911,354.723 143.523 C 354.838 142.135,354.935 142.038,356.323 141.923 C 357.661 141.812,357.812 141.680,357.924 140.524 C 358.031 139.412,358.212 139.231,359.324 139.124 C 360.480 139.012,360.612 138.861,360.723 137.523 C 360.838 136.135,360.935 136.038,362.323 135.923 C 363.711 135.807,363.807 135.711,363.923 134.323 C 364.038 132.935,364.135 132.838,365.523 132.723 C 366.911 132.607,367.007 132.511,367.123 131.123 C 367.238 129.735,367.335 129.638,368.723 129.523 C 370.111 129.407,370.207 129.311,370.323 127.923 C 370.438 126.535,370.535 126.438,371.923 126.323 C 373.261 126.212,373.412 126.080,373.524 124.924 C 373.631 123.812,373.812 123.631,374.924 123.524 C 376.080 123.412,376.212 123.261,376.323 121.923 C 376.438 120.535,376.535 120.438,377.923 120.323 C 379.311 120.207,379.407 120.111,379.523 118.723 C 379.638 117.335,379.735 117.238,381.123 117.123 C 382.511 117.007,382.607 116.911,382.723 115.523 C 382.838 114.135,382.935 114.038,384.323 113.923 C 385.711 113.807,385.807 113.711,385.923 112.323 C 386.038 110.935,386.135 110.838,387.523 110.723 C 388.861 110.612,389.012 110.480,389.124 109.324 C 389.231 108.212,389.412 108.031,390.524 107.924 C 391.684 107.811,391.811 107.663,391.924 106.300 C 392.030 105.026,392.190 104.800,392.991 104.800 C 394.754 104.800,395.200 104.396,395.200 102.801 C 395.200 101.509,395.351 101.249,396.226 101.029 C 397.701 100.659,398.400 98.660,398.400 94.813 C 398.400 91.867,398.466 91.600,399.200 91.600 C 399.979 91.600,400.000 91.333,400.000 81.200 C 400.000 71.067,399.979 70.800,399.200 70.800 C 398.469 70.800,398.400 70.533,398.398 67.700 C 398.395 63.307,397.863 61.633,396.377 61.335 C 395.317 61.123,395.200 60.946,395.200 59.550 C 395.200 58.008,395.191 58.000,393.600 58.000 L 392.000 58.000 392.000 56.400 C 392.000 55.520,391.820 54.800,391.600 54.800 C 391.380 54.800,391.200 54.539,391.200 54.220 C 391.200 53.623,388.831 51.600,388.132 51.600 C 387.629 51.600,386.194 50.012,385.872 49.100 C 385.700 48.612,385.197 48.400,384.213 48.400 C 382.863 48.400,382.800 48.337,382.800 46.990 C 382.800 45.906,382.592 45.493,381.900 45.204 C 380.574 44.649,379.601 43.787,379.589 43.156 C 379.583 42.850,378.863 42.159,377.989 41.620 C 377.089 41.064,376.400 40.327,376.400 39.920 C 376.400 39.519,376.109 39.200,375.744 39.200 C 375.024 39.200,374.180 38.296,373.596 36.900 C 373.389 36.405,372.929 36.000,372.574 36.000 C 371.873 36.000,370.435 34.490,370.413 33.732 C 370.396 33.122,366.878 29.604,366.268 29.587 C 365.510 29.565,364.000 28.127,364.000 27.426 C 364.000 27.071,363.595 26.611,363.100 26.404 C 361.704 25.820,360.800 24.976,360.800 24.256 C 360.800 23.895,360.620 23.600,360.400 23.600 C 360.180 23.600,360.000 23.339,360.000 23.020 C 360.000 22.367,357.602 20.400,356.806 20.400 C 356.211 20.400,355.343 19.406,354.796 18.100 C 354.507 17.408,354.094 17.200,353.010 17.200 C 351.671 17.200,351.600 17.131,351.600 15.832 C 351.600 14.448,348.628 10.820,347.468 10.787 C 346.715 10.765,345.200 9.329,345.200 8.636 C 345.200 8.161,344.796 8.000,343.600 8.000 L 342.000 8.000 342.000 6.400 C 342.000 4.801,341.999 4.800,340.408 4.800 C 339.025 4.800,338.781 4.663,338.553 3.757 C 338.163 2.201,336.285 1.600,331.813 1.600 C 328.267 1.600,328.000 1.544,328.000 0.800 C 328.000 0.023,327.733 0.000,318.600 0.000 C 309.467 0.000,309.200 0.023,309.200 0.800 M324.593 22.086 C 325.037 22.313,325.760 22.815,326.200 23.201 C 326.640 23.586,327.684 24.121,328.520 24.388 C 329.725 24.774,334.098 28.949,349.623 44.538 C 376.678 71.702,374.967 69.894,375.811 72.200 C 376.213 73.300,376.869 74.520,377.267 74.911 C 378.859 76.476,378.886 85.205,377.304 86.889 C 376.822 87.403,376.146 88.628,375.803 89.611 C 375.460 90.595,374.959 91.580,374.689 91.800 C 374.420 92.020,373.674 92.920,373.031 93.800 C 372.388 94.680,339.314 127.890,299.533 167.600 C 259.751 207.310,208.707 258.284,186.102 280.875 C 152.588 314.366,144.657 322.096,143.144 322.742 C 142.123 323.177,141.161 323.740,141.005 323.992 C 140.213 325.273,138.500 325.379,115.389 325.589 L 92.177 325.800 90.655 327.200 C 89.817 327.970,83.668 334.029,76.990 340.664 C 70.312 347.300,64.072 353.269,63.124 353.929 C 62.176 354.589,57.800 358.766,53.400 363.211 C 41.228 375.507,41.100 375.600,36.247 375.600 C 31.827 375.600,29.698 374.804,27.279 372.246 C 25.148 369.993,24.981 369.601,24.623 366.000 C 24.006 359.793,23.746 360.195,37.246 346.529 C 42.501 341.210,46.800 336.669,46.800 336.438 C 46.800 336.207,50.161 332.638,54.270 328.509 C 58.378 324.379,64.588 318.057,68.070 314.461 L 74.400 307.922 74.434 286.261 C 74.470 262.729,74.602 260.251,75.874 259.222 C 76.324 258.857,77.066 257.713,77.524 256.679 C 78.156 255.250,81.132 252.004,89.939 243.138 L 101.523 231.476 102.985 232.338 C 103.788 232.812,104.739 233.200,105.097 233.200 C 105.892 233.200,107.600 234.742,107.600 235.459 C 107.600 235.745,108.115 236.246,108.744 236.571 C 109.373 236.896,110.108 237.695,110.378 238.346 C 110.659 239.025,111.271 239.632,111.813 239.767 C 112.332 239.898,113.076 240.544,113.465 241.202 C 113.854 241.861,114.278 242.400,114.407 242.400 C 114.536 242.400,115.749 243.120,117.103 244.000 C 119.973 245.865,120.122 245.888,121.617 244.700 C 122.240 244.205,123.235 243.459,123.828 243.041 C 125.653 241.757,124.916 236.094,122.780 234.990 C 122.162 234.670,121.546 234.060,121.411 233.633 C 121.275 233.207,120.524 232.480,119.742 232.019 C 118.960 231.557,118.225 230.817,118.109 230.374 C 117.993 229.931,117.384 229.302,116.756 228.977 C 116.128 228.652,115.358 227.895,115.046 227.293 C 114.733 226.692,113.920 225.790,113.239 225.288 C 110.449 223.235,111.331 221.787,121.504 211.720 C 132.072 201.262,132.621 200.961,135.600 204.000 C 136.463 204.880,137.338 205.600,137.545 205.600 C 137.752 205.600,138.293 206.230,138.747 207.000 C 139.201 207.770,139.855 208.400,140.200 208.400 C 140.545 208.400,141.182 209.002,141.616 209.737 C 142.050 210.472,142.845 211.274,143.383 211.519 C 143.921 211.765,144.628 212.481,144.954 213.111 C 146.079 215.286,153.200 216.016,153.200 213.956 C 153.200 213.783,153.650 213.156,154.200 212.562 C 155.688 210.957,155.616 208.350,154.053 207.238 C 153.422 206.788,152.683 205.882,152.410 205.224 C 152.137 204.565,151.571 203.918,151.153 203.785 C 150.734 203.652,150.120 203.019,149.789 202.378 C 149.458 201.738,148.642 200.932,147.976 200.588 C 147.310 200.243,146.584 199.563,146.362 199.076 C 146.140 198.589,145.420 197.882,144.763 197.504 C 144.083 197.114,143.307 196.167,142.965 195.309 C 142.635 194.479,142.173 193.415,141.939 192.945 C 141.388 191.839,141.594 191.600,152.305 180.900 C 157.027 176.183,161.132 172.400,161.529 172.400 C 162.851 172.400,166.411 174.462,166.977 175.555 C 167.282 176.146,167.977 176.867,168.522 177.158 C 169.066 177.450,169.748 178.130,170.037 178.669 C 170.326 179.209,171.052 179.940,171.650 180.293 C 172.248 180.646,172.965 181.361,173.244 181.882 C 174.182 183.635,179.704 186.007,180.793 185.126 C 181.285 184.726,181.911 184.400,182.182 184.400 C 183.192 184.400,183.994 182.935,184.060 180.972 C 184.134 178.778,183.379 175.600,182.785 175.600 C 182.388 175.600,174.618 167.986,174.350 167.336 C 174.268 167.135,173.593 166.545,172.852 166.024 C 171.548 165.108,171.511 165.008,171.744 163.040 L 171.986 161.004 180.898 152.174 C 192.819 140.364,191.582 140.565,200.118 149.043 C 208.038 156.909,210.239 157.629,213.567 153.442 C 214.487 152.284,214.800 151.478,214.800 150.265 C 214.800 148.431,215.179 148.902,207.494 141.168 C 203.964 137.615,202.412 135.764,202.216 134.872 C 202.063 134.177,201.772 133.506,201.568 133.380 C 200.807 132.910,202.290 131.193,211.139 122.300 L 220.193 113.200 221.999 113.200 C 223.787 113.200,223.859 113.255,229.402 118.796 C 234.389 123.781,235.232 124.460,237.123 125.014 C 241.803 126.384,244.713 123.586,243.523 118.859 C 243.151 117.382,242.188 116.223,237.142 111.182 C 230.962 105.007,230.696 104.579,231.580 102.252 C 231.909 101.388,247.741 85.390,249.839 83.801 C 251.931 82.218,253.327 83.061,260.697 90.359 L 266.393 96.000 268.432 96.000 C 272.759 96.000,275.751 90.491,272.965 87.654 C 261.262 75.734,260.345 74.414,261.809 71.583 C 262.995 69.290,307.559 25.171,309.573 24.297 C 310.578 23.861,311.791 23.148,312.268 22.712 C 313.810 21.306,322.240 20.878,324.593 22.086 M300.500 91.865 C 300.225 91.976,300.000 92.313,300.000 92.613 C 300.000 92.914,299.712 93.321,299.361 93.518 C 298.776 93.845,278.736 113.706,271.126 121.500 C 269.354 123.315,267.755 124.800,267.572 124.800 C 267.389 124.800,267.088 125.070,266.904 125.401 C 266.590 125.960,259.344 133.309,246.709 145.883 C 243.789 148.788,238.136 154.458,234.146 158.483 C 230.157 162.507,226.467 166.189,225.946 166.664 C 225.426 167.140,223.330 169.210,221.288 171.264 C 219.247 173.319,217.357 175.220,217.088 175.488 C 216.380 176.196,206.516 186.061,155.968 236.610 C 106.139 286.440,110.014 282.393,110.007 284.600 C 109.994 288.169,111.873 289.984,115.588 289.994 L 117.777 290.000 133.696 274.100 C 142.452 265.355,161.717 246.085,176.508 231.278 C 191.299 216.470,204.355 203.420,205.522 202.278 C 206.689 201.135,207.859 199.990,208.122 199.733 C 208.385 199.476,216.818 191.016,226.861 180.933 C 236.905 170.850,246.265 161.482,247.661 160.116 C 249.058 158.750,251.867 155.960,253.904 153.916 C 255.941 151.872,257.831 149.996,258.104 149.747 C 258.377 149.497,261.878 145.987,265.884 141.947 C 269.891 137.906,279.305 128.480,286.805 121.000 C 294.305 113.520,302.346 105.456,304.674 103.081 L 308.906 98.762 308.692 96.094 C 308.378 92.173,304.586 90.216,300.500 91.865 " stroke="none" fill="#3c4454" fill-rule="evenodd"></path><path id="path1" d="M318.105 21.487 C 318.714 21.579,319.614 21.577,320.105 21.482 C 320.597 21.387,320.100 21.311,319.000 21.314 C 317.900 21.317,317.497 21.395,318.105 21.487 M313.600 21.891 C 312.905 22.155,310.618 24.000,310.986 24.000 C 311.121 24.000,311.744 23.622,312.370 23.159 C 312.996 22.696,314.113 22.175,314.854 22.000 C 315.917 21.749,315.990 21.680,315.200 21.673 C 314.650 21.667,313.930 21.766,313.600 21.891 M323.116 21.994 C 323.840 22.165,324.740 22.570,325.116 22.892 C 326.358 23.957,327.095 24.270,326.429 23.450 C 325.640 22.479,323.823 21.592,322.720 21.641 C 322.033 21.672,322.133 21.761,323.116 21.994 M285.231 47.600 C 272.685 60.140,262.146 70.931,261.810 71.580 C 260.859 73.420,261.103 73.584,262.138 71.800 C 262.649 70.920,273.293 59.985,285.791 47.500 C 298.289 35.015,308.409 24.800,308.279 24.800 C 308.149 24.800,297.777 35.060,285.231 47.600 M337.643 32.911 C 342.129 37.373,346.154 41.288,346.587 41.611 C 347.019 41.935,343.451 38.285,338.657 33.500 C 333.863 28.715,329.838 24.800,329.713 24.800 C 329.588 24.800,333.156 28.450,337.643 32.911 M347.344 42.709 C 347.660 43.221,350.000 44.953,350.000 44.675 C 350.000 44.576,349.339 43.991,348.532 43.375 C 347.724 42.759,347.189 42.459,347.344 42.709 M352.200 47.512 C 353.520 48.871,354.661 49.987,354.736 49.992 C 355.080 50.013,352.552 47.275,351.253 46.220 C 350.454 45.571,350.880 46.152,352.200 47.512 M356.175 51.332 C 356.791 52.139,357.376 52.800,357.475 52.800 C 357.753 52.800,356.021 50.460,355.509 50.144 C 355.259 49.989,355.559 50.524,356.175 51.332 M358.604 53.600 C 359.942 55.329,363.342 58.773,364.800 59.878 C 365.574 60.464,365.216 59.990,364.000 58.818 C 362.790 57.652,360.907 55.776,359.815 54.649 C 358.723 53.522,358.178 53.050,358.604 53.600 M367.381 62.726 C 368.251 63.647,369.025 64.400,369.101 64.400 C 369.489 64.400,368.436 63.168,367.200 62.176 C 365.815 61.064,365.817 61.070,367.381 62.726 M371.600 67.000 C 372.346 67.770,373.047 68.400,373.157 68.400 C 373.267 68.400,372.746 67.770,372.000 67.000 C 371.254 66.230,370.553 65.600,370.443 65.600 C 370.333 65.600,370.854 66.230,371.600 67.000 M377.422 75.400 C 377.574 75.840,377.838 76.740,378.009 77.400 C 378.292 78.498,378.320 78.515,378.345 77.600 C 378.360 77.050,378.096 76.150,377.758 75.600 C 377.351 74.936,377.238 74.869,377.422 75.400 M262.013 75.692 C 261.995 76.100,266.749 81.319,267.546 81.768 C 267.906 81.970,267.079 80.975,265.709 79.557 C 264.339 78.139,262.950 76.623,262.622 76.189 C 262.294 75.755,262.020 75.531,262.013 75.692 M268.124 82.677 C 268.460 83.221,271.600 85.755,271.600 85.482 C 271.600 85.380,270.753 84.603,269.719 83.755 C 268.684 82.907,267.966 82.422,268.124 82.677 M249.810 83.823 C 248.615 84.726,233.222 100.000,233.507 100.000 C 233.643 100.000,237.275 96.516,241.577 92.258 C 245.880 88.001,249.845 84.221,250.389 83.858 C 250.933 83.496,251.203 83.206,250.989 83.213 C 250.775 83.220,250.244 83.494,249.810 83.823 M258.692 88.925 C 264.009 94.164,265.972 96.000,266.258 96.000 C 266.527 96.000,254.977 84.715,254.092 84.114 C 253.592 83.775,255.662 85.940,258.692 88.925 M377.632 85.569 C 377.614 85.881,377.292 86.511,376.915 86.969 C 376.269 87.753,376.283 87.751,377.162 86.942 C 377.675 86.470,377.997 85.840,377.879 85.542 C 377.704 85.103,377.657 85.108,377.632 85.569 M271.987 86.691 C 272.224 87.181,272.819 87.776,273.309 88.013 C 274.138 88.414,274.149 88.403,273.468 87.854 C 273.065 87.530,272.470 86.935,272.146 86.532 C 271.597 85.851,271.586 85.862,271.987 86.691 M274.114 90.600 C 274.117 91.700,274.195 92.103,274.287 91.495 C 274.379 90.886,274.377 89.986,274.282 89.495 C 274.187 89.003,274.111 89.500,274.114 90.600 M302.505 91.487 C 303.114 91.579,304.014 91.577,304.505 91.482 C 304.997 91.387,304.500 91.311,303.400 91.314 C 302.300 91.317,301.897 91.395,302.505 91.487 M372.892 93.429 C 372.397 94.183,372.072 94.800,372.169 94.800 C 372.447 94.800,374.104 92.371,373.939 92.206 C 373.857 92.124,373.386 92.674,372.892 93.429 M295.992 96.290 L 292.200 100.180 296.000 96.590 C 299.466 93.316,300.324 92.400,299.925 92.400 C 299.848 92.400,298.078 94.151,295.992 96.290 M273.122 93.220 C 272.749 93.437,272.058 94.197,271.587 94.908 L 270.731 96.200 271.594 95.200 C 272.069 94.650,272.850 93.889,273.329 93.509 C 274.287 92.749,274.182 92.602,273.122 93.220 M369.387 97.700 L 367.000 100.200 369.500 97.813 C 370.875 96.499,372.000 95.374,372.000 95.313 C 372.000 95.017,371.605 95.378,369.387 97.700 M267.705 96.287 C 268.314 96.379,269.214 96.377,269.705 96.282 C 270.197 96.187,269.700 96.111,268.600 96.114 C 267.500 96.117,267.097 96.195,267.705 96.287 M304.161 103.626 C 298.884 108.991,298.865 109.140,304.113 104.007 C 306.471 101.701,308.400 99.766,308.400 99.707 C 308.400 99.376,307.760 99.968,304.161 103.626 M231.780 101.787 C 230.766 104.214,231.406 106.800,233.020 106.800 C 233.217 106.800,232.957 106.505,232.443 106.145 C 231.318 105.357,231.417 102.507,232.615 101.184 C 233.055 100.697,233.141 100.400,232.842 100.400 C 232.576 100.400,232.098 101.024,231.780 101.787 M364.585 102.500 L 362.600 104.600 364.700 102.615 C 366.651 100.771,366.983 100.400,366.685 100.400 C 366.622 100.400,365.677 101.345,364.585 102.500 M283.591 108.616 C 279.306 112.915,275.717 116.560,275.615 116.716 C 275.513 116.872,279.068 113.402,283.515 109.004 C 287.962 104.606,291.600 100.961,291.600 100.904 C 291.600 100.614,290.808 101.377,283.591 108.616 M358.386 108.700 L 356.200 111.000 358.500 108.814 C 360.637 106.782,360.983 106.400,360.686 106.400 C 360.624 106.400,359.589 107.435,358.386 108.700 M236.204 110.177 C 237.522 111.484,239.571 113.554,240.758 114.777 C 241.969 116.025,242.334 116.299,241.588 115.400 C 240.101 113.606,236.322 109.819,234.804 108.600 C 234.256 108.160,234.886 108.870,236.204 110.177 M279.114 128.700 C 267.958 139.865,258.696 149.180,258.531 149.400 C 258.367 149.620,267.540 140.531,278.916 129.201 C 290.292 117.872,299.600 108.557,299.600 108.501 C 299.600 108.221,297.971 109.827,279.114 128.700 M214.395 119.100 L 208.600 125.000 214.405 119.300 C 222.250 111.597,221.687 111.612,229.078 118.900 C 232.034 121.815,234.531 124.245,234.627 124.300 C 235.098 124.572,233.949 123.368,229.091 118.500 C 221.740 111.133,222.239 111.113,214.395 119.100 M347.586 119.500 L 345.400 121.800 347.700 119.614 C 348.965 118.411,350.000 117.376,350.000 117.314 C 350.000 117.017,349.618 117.363,347.586 119.500 M271.000 121.200 C 269.029 123.180,267.593 124.776,267.808 124.748 C 268.203 124.695,275.110 117.600,274.767 117.600 C 274.666 117.600,272.971 119.220,271.000 121.200 M243.736 120.862 C 243.720 122.747,243.759 122.851,244.061 121.739 C 244.249 121.045,244.257 120.083,244.078 119.600 C 243.841 118.960,243.749 119.299,243.736 120.862 M342.400 124.332 C 341.494 125.215,341.483 125.264,342.278 124.851 C 342.760 124.601,343.273 124.205,343.418 123.971 C 343.910 123.175,343.402 123.355,342.400 124.332 M237.000 125.251 C 237.660 125.502,238.396 125.862,238.636 126.050 C 238.895 126.253,239.708 126.060,240.636 125.574 C 241.535 125.103,241.775 124.872,241.200 125.029 C 239.874 125.393,238.465 125.407,237.000 125.071 L 235.800 124.795 237.000 125.251 M205.135 128.300 C 201.866 131.627,200.928 132.985,201.609 133.405 C 201.835 133.545,201.994 133.511,201.963 133.330 C 201.789 132.330,202.293 131.603,205.271 128.551 C 207.070 126.708,208.461 125.200,208.362 125.200 C 208.262 125.200,206.810 126.595,205.135 128.300 M258.596 133.682 C 254.198 138.127,251.010 141.424,251.512 141.009 C 252.164 140.469,264.441 128.208,266.767 125.774 C 266.858 125.679,266.857 125.600,266.763 125.600 C 266.669 125.600,262.994 129.237,258.596 133.682 M202.412 135.506 C 202.405 135.784,204.245 137.849,206.500 140.096 C 208.755 142.343,210.339 143.825,210.021 143.390 C 209.703 142.956,208.069 141.250,206.392 139.600 C 204.714 137.950,203.135 136.240,202.883 135.800 C 202.631 135.360,202.419 135.228,202.412 135.506 M324.101 142.640 C 323.606 143.204,323.411 143.596,323.667 143.511 C 324.098 143.367,325.480 141.591,325.149 141.607 C 325.067 141.611,324.595 142.076,324.101 142.640 M245.992 146.300 L 242.200 150.200 246.100 146.408 C 248.245 144.322,250.000 142.567,250.000 142.508 C 250.000 142.218,249.514 142.678,245.992 146.300 M189.950 143.503 C 189.372 143.886,188.292 144.815,187.550 145.566 L 186.200 146.932 187.488 146.047 C 188.196 145.561,188.891 144.977,189.032 144.749 C 189.172 144.521,189.853 143.990,190.544 143.569 C 191.235 143.148,191.620 142.804,191.400 142.804 C 191.180 142.805,190.527 143.119,189.950 143.503 M193.400 143.274 C 194.253 143.754,196.456 145.709,197.543 146.951 C 198.816 148.407,205.645 155.002,206.012 155.131 C 206.437 155.280,198.369 147.163,195.487 144.541 C 194.434 143.583,193.354 142.805,193.087 142.812 C 192.819 142.819,192.960 143.027,193.400 143.274 M211.904 145.540 C 212.507 146.387,213.450 147.418,214.000 147.832 C 214.550 148.246,214.111 147.553,213.024 146.292 C 210.720 143.620,210.369 143.385,211.904 145.540 M184.400 148.680 C 183.004 150.147,183.003 150.149,184.236 149.294 C 185.642 148.319,186.668 147.198,186.149 147.204 C 185.957 147.207,185.170 147.871,184.400 148.680 M253.867 153.867 C 251.740 155.993,250.000 157.835,250.000 157.959 C 250.000 158.083,251.800 156.392,254.000 154.200 C 256.200 152.008,258.000 150.167,258.000 150.108 C 258.000 149.788,257.399 150.334,253.867 153.867 M181.178 151.866 L 179.800 153.333 181.036 152.485 C 182.464 151.505,183.467 150.400,182.927 150.400 C 182.724 150.400,181.937 151.060,181.178 151.866 M233.396 158.882 C 228.998 163.327,225.829 166.612,226.353 166.182 C 226.878 165.752,230.478 162.198,234.353 158.284 C 242.431 150.127,241.783 150.800,241.563 150.800 C 241.469 150.800,237.794 154.437,233.396 158.882 M314.400 152.272 C 313.513 153.210,313.497 153.278,314.253 152.876 C 314.722 152.626,315.211 152.147,315.340 151.811 C 315.654 150.994,315.568 151.036,314.400 152.272 M213.800 153.089 C 212.382 154.974,212.257 155.438,213.546 154.028 C 214.236 153.273,214.800 152.508,214.800 152.328 C 214.800 151.833,214.671 151.931,213.800 153.089 M175.700 157.314 C 173.665 159.353,172.005 161.287,172.012 161.611 C 172.020 162.008,172.166 161.939,172.460 161.400 C 172.699 160.960,174.530 159.025,176.528 157.100 C 178.526 155.175,179.989 153.602,179.780 153.603 C 179.571 153.605,177.735 155.275,175.700 157.314 M208.505 155.887 C 209.114 155.979,210.014 155.977,210.505 155.882 C 210.997 155.787,210.500 155.711,209.400 155.714 C 208.300 155.717,207.897 155.795,208.505 155.887 M228.966 178.810 C 217.765 190.035,208.517 199.350,208.416 199.510 C 208.315 199.669,217.540 190.531,228.916 179.201 C 240.292 167.872,249.600 158.557,249.600 158.501 C 249.600 158.170,247.495 160.242,228.966 178.810 M220.975 171.062 C 218.762 173.338,217.067 175.200,217.209 175.200 C 217.593 175.200,225.200 167.521,225.200 167.133 C 225.200 166.689,225.510 166.400,220.975 171.062 M178.516 171.700 C 180.664 173.845,182.641 175.595,182.910 175.588 C 183.180 175.581,183.050 175.373,182.623 175.125 C 182.195 174.877,180.575 173.389,179.023 171.819 C 177.470 170.249,175.843 168.702,175.406 168.382 C 174.969 168.062,176.368 169.555,178.516 171.700 M295.600 171.132 C 294.694 172.015,294.683 172.064,295.478 171.651 C 295.960 171.401,296.473 171.005,296.618 170.771 C 297.110 169.975,296.602 170.155,295.600 171.132 M159.600 173.600 C 158.861 174.260,158.413 174.800,158.606 174.800 C 158.799 174.800,159.420 174.355,159.988 173.812 C 161.119 172.728,163.165 173.007,165.872 174.615 C 166.941 175.249,166.958 175.248,166.200 174.599 C 163.587 172.358,161.367 172.022,159.600 173.600 M292.576 174.026 C 291.887 174.745,291.680 175.144,292.077 174.992 C 292.650 174.772,294.276 172.800,293.884 172.800 C 293.810 172.800,293.221 173.352,292.576 174.026 M154.145 178.982 C 151.993 181.063,150.318 182.851,150.424 182.957 C 150.530 183.063,152.411 181.361,154.605 179.175 C 156.799 176.989,158.473 175.200,158.326 175.200 C 158.179 175.200,156.298 176.902,154.145 178.982 M166.800 175.825 C 166.800 175.928,168.427 177.624,170.415 179.593 C 172.403 181.563,173.723 182.654,173.347 182.018 C 172.972 181.383,172.234 180.632,171.707 180.350 C 171.180 180.068,170.452 179.334,170.088 178.719 C 169.725 178.103,169.313 177.600,169.172 177.600 C 169.032 177.600,168.441 177.159,167.858 176.619 C 167.276 176.080,166.800 175.722,166.800 175.825 M208.596 183.685 C 204.198 188.132,200.725 191.687,200.877 191.585 C 201.821 190.954,217.075 175.600,216.758 175.600 C 216.667 175.600,212.994 179.238,208.596 183.685 M184.123 180.648 C 184.104 182.820,184.125 182.878,184.403 181.406 C 184.569 180.529,184.579 179.471,184.424 179.054 C 184.261 178.611,184.135 179.273,184.123 180.648 M286.501 180.240 C 286.006 180.804,285.811 181.196,286.067 181.111 C 286.498 180.967,287.880 179.191,287.549 179.207 C 287.467 179.211,286.995 179.676,286.501 180.240 M282.975 183.700 L 281.800 185.000 283.100 183.825 C 283.815 183.179,284.400 182.594,284.400 182.525 C 284.400 182.216,284.070 182.488,282.975 183.700 M148.500 184.547 C 147.174 185.912,146.699 186.914,147.819 185.985 C 148.442 185.467,150.164 183.196,149.927 183.204 C 149.857 183.207,149.215 183.811,148.500 184.547 M175.238 183.810 C 175.551 184.123,176.690 184.805,177.768 185.325 L 179.729 186.272 181.461 185.304 C 183.683 184.062,184.090 183.436,182.027 184.433 C 181.160 184.851,180.350 185.358,180.226 185.558 C 180.102 185.759,178.801 185.319,177.335 184.581 C 175.868 183.844,174.925 183.496,175.238 183.810 M279.978 186.663 C 279.068 187.630,278.918 187.914,279.537 187.500 C 280.377 186.938,281.861 185.200,281.501 185.200 C 281.422 185.200,280.737 185.858,279.978 186.663 M144.561 188.649 C 143.482 189.887,142.375 191.134,142.100 191.421 C 141.474 192.075,141.462 192.667,142.068 193.042 C 142.381 193.235,142.453 193.115,142.286 192.679 C 142.119 192.244,142.665 191.322,143.924 189.913 C 146.176 187.394,146.965 186.400,146.710 186.400 C 146.606 186.400,145.639 187.412,144.561 188.649 M272.189 194.477 C 270.655 196.059,269.750 197.094,270.177 196.777 C 271.077 196.109,275.200 191.988,275.200 191.756 C 275.200 191.413,274.873 191.709,272.189 194.477 M195.992 196.300 L 192.200 200.200 196.100 196.408 C 199.722 192.886,200.182 192.400,199.892 192.400 C 199.833 192.400,198.078 194.155,195.992 196.300 M142.812 195.011 C 142.792 195.687,143.979 197.163,144.921 197.632 C 145.652 197.997,145.623 197.914,144.743 197.136 C 144.161 196.621,143.492 195.840,143.255 195.400 C 143.018 194.960,142.819 194.785,142.812 195.011 M267.701 199.040 C 267.206 199.604,267.011 199.996,267.267 199.911 C 267.698 199.767,269.080 197.991,268.749 198.007 C 268.667 198.011,268.195 198.476,267.701 199.040 M146.334 199.054 C 146.579 199.524,147.459 200.291,148.290 200.758 C 149.206 201.273,149.429 201.330,148.857 200.904 C 148.338 200.517,147.458 199.750,146.901 199.200 C 146.010 198.320,145.942 198.302,146.334 199.054 M203.946 203.823 C 198.941 208.931,198.928 209.077,203.913 204.208 C 206.161 202.012,208.000 200.167,208.000 200.108 C 208.000 199.757,207.322 200.379,203.946 203.823 M183.591 208.616 C 179.306 212.915,175.717 216.560,175.615 216.716 C 175.513 216.872,179.068 213.402,183.515 209.004 C 187.962 204.606,191.600 200.961,191.600 200.904 C 191.600 200.614,190.808 201.377,183.591 208.616 M206.199 260.484 C 173.420 293.310,146.726 320.085,146.879 319.984 C 147.297 319.709,266.000 201.066,266.000 200.923 C 266.000 200.617,262.546 204.057,206.199 260.484 M133.800 202.869 C 134.240 203.113,135.015 203.783,135.522 204.357 L 136.444 205.400 135.766 204.284 C 135.119 203.221,134.031 202.386,133.326 202.412 C 133.147 202.419,133.360 202.624,133.800 202.869 M129.800 203.542 C 129.360 203.936,128.101 205.235,127.002 206.429 C 125.305 208.273,125.454 208.178,127.991 205.800 C 129.634 204.260,131.058 202.955,131.156 202.900 C 131.253 202.845,131.168 202.806,130.967 202.813 C 130.765 202.821,130.240 203.149,129.800 203.542 M152.574 205.441 C 152.896 206.123,153.663 206.999,154.280 207.387 L 155.400 208.093 154.200 206.922 C 153.540 206.279,152.772 205.403,152.494 204.976 C 152.216 204.549,152.252 204.758,152.574 205.441 M137.579 206.178 C 138.720 207.392,138.974 207.473,138.425 206.447 C 138.204 206.033,137.706 205.573,137.321 205.425 C 136.798 205.224,136.863 205.416,137.579 206.178 M118.862 214.252 C 113.337 219.839,111.998 221.510,112.011 222.800 C 112.015 223.130,112.348 222.680,112.751 221.800 C 113.189 220.846,115.617 218.100,118.766 215.000 C 123.163 210.671,125.316 208.291,124.714 208.425 C 124.651 208.439,122.018 211.062,118.862 214.252 M178.799 229.100 L 158.200 249.800 178.900 229.201 C 198.141 210.055,199.780 208.400,199.499 208.400 C 199.443 208.400,190.128 217.715,178.799 229.100 M141.632 210.291 C 141.614 210.561,142.095 211.089,142.700 211.465 C 143.305 211.841,144.127 212.520,144.527 212.974 L 145.254 213.800 144.815 212.904 C 144.574 212.411,143.858 211.740,143.224 211.413 C 142.591 211.085,141.980 210.588,141.868 210.308 C 141.714 209.926,141.655 209.922,141.632 210.291 M153.556 213.300 C 153.086 214.195,153.088 214.196,153.942 213.438 C 154.895 212.591,154.982 212.400,154.414 212.400 C 154.202 212.400,153.816 212.805,153.556 213.300 M170.992 221.300 L 167.400 225.000 171.100 221.408 C 173.135 219.433,174.800 217.768,174.800 217.708 C 174.800 217.418,174.328 217.864,170.992 221.300 M114.842 226.910 C 115.309 227.741,116.076 228.621,116.546 228.866 C 117.298 229.258,117.280 229.190,116.400 228.299 C 115.850 227.742,115.083 226.862,114.696 226.343 C 114.270 225.771,114.327 225.994,114.842 226.910 M158.791 233.416 C 154.506 237.715,150.917 241.360,150.815 241.516 C 150.713 241.672,154.268 238.202,158.715 233.804 C 163.162 229.406,166.800 225.761,166.800 225.704 C 166.800 225.414,166.008 226.177,158.791 233.416 M101.088 232.055 C 100.709 232.267,100.400 232.633,100.400 232.869 C 100.400 233.140,100.625 233.111,101.012 232.790 C 101.491 232.392,101.849 232.385,102.664 232.756 C 104.109 233.415,104.333 232.993,102.925 232.265 C 102.129 231.853,101.564 231.789,101.088 232.055 M92.299 240.705 C 88.173 244.827,84.798 248.324,84.799 248.475 C 84.800 248.750,98.520 235.185,99.549 233.890 C 100.864 232.237,99.345 233.664,92.299 240.705 M106.326 234.312 C 106.916 234.924,107.476 235.374,107.568 235.311 C 107.799 235.155,105.935 233.200,105.556 233.200 C 105.388 233.200,105.735 233.701,106.326 234.312 M121.446 233.711 C 121.583 234.102,122.078 234.619,122.547 234.860 C 123.277 235.235,123.316 235.219,122.818 234.749 C 122.498 234.447,122.003 233.930,121.717 233.600 C 121.265 233.078,121.230 233.092,121.446 233.711 M111.832 240.058 C 112.289 240.280,112.975 240.988,113.355 241.631 C 113.734 242.274,114.213 242.800,114.419 242.800 C 114.784 242.800,114.097 241.817,112.700 240.340 C 112.315 239.933,111.775 239.612,111.500 239.627 C 111.225 239.642,111.374 239.836,111.832 240.058 M123.200 243.456 C 121.429 244.705,120.517 245.600,121.014 245.599 C 121.226 245.598,122.210 244.886,123.200 244.016 C 125.246 242.218,125.246 242.013,123.200 243.456 M145.992 246.300 L 142.200 250.200 146.100 246.408 C 149.722 242.886,150.182 242.400,149.892 242.400 C 149.833 242.400,148.078 244.155,145.992 246.300 M116.596 243.995 C 117.461 244.952,118.771 245.762,119.032 245.502 C 119.121 245.412,118.431 244.839,117.497 244.227 C 116.079 243.299,115.931 243.260,116.596 243.995 M153.792 254.100 L 149.800 258.200 153.900 254.208 C 157.708 250.499,158.182 250.000,157.892 250.000 C 157.833 250.000,155.988 251.845,153.792 254.100 M81.600 251.400 C 81.083 251.950,80.841 252.400,81.061 252.400 C 81.281 252.400,81.883 251.950,82.400 251.400 C 82.917 250.850,83.159 250.400,82.939 250.400 C 82.719 250.400,82.117 250.850,81.600 251.400 M133.701 258.500 C 129.467 262.735,125.874 266.380,125.716 266.600 C 125.559 266.820,129.068 263.402,133.515 259.004 C 141.008 251.593,141.780 250.800,141.500 250.800 C 141.444 250.800,137.935 254.265,133.701 258.500 M79.178 254.300 L 77.800 255.800 79.300 254.422 C 80.696 253.138,80.984 252.800,80.678 252.800 C 80.612 252.800,79.937 253.475,79.178 254.300 M133.704 274.095 L 118.009 289.790 115.704 290.036 L 113.400 290.282 115.554 290.341 L 117.708 290.400 121.487 286.700 C 124.389 283.859,148.740 259.473,149.567 258.580 C 149.658 258.481,149.658 258.400,149.566 258.400 C 149.474 258.400,142.336 265.463,133.704 274.095 M75.423 259.689 C 75.080 260.178,74.811 260.943,74.825 261.389 C 74.847 262.094,74.902 262.071,75.246 261.208 C 75.464 260.663,75.931 259.898,76.283 259.508 C 76.638 259.116,76.728 258.800,76.485 258.800 C 76.243 258.800,75.765 259.200,75.423 259.689 M74.586 284.800 C 74.586 296.350,74.637 301.075,74.700 295.300 C 74.762 289.525,74.762 280.075,74.700 274.300 C 74.637 268.525,74.586 273.250,74.586 284.800 M121.600 270.528 C 119.950 272.137,118.341 273.801,118.024 274.227 C 117.708 274.652,119.103 273.384,121.124 271.408 C 124.512 268.098,124.982 267.598,124.700 267.601 C 124.645 267.602,123.250 268.919,121.600 270.528 M114.362 277.747 C 113.173 278.927,111.755 280.412,111.211 281.047 C 110.667 281.681,111.702 280.764,113.511 279.009 C 115.320 277.255,116.800 275.770,116.800 275.709 C 116.800 275.398,116.337 275.785,114.362 277.747 M68.025 314.523 C 63.317 319.462,62.872 320.003,66.154 316.800 C 69.923 313.121,74.739 307.957,74.340 308.023 C 74.263 308.035,71.421 310.960,68.025 314.523 M145.549 320.665 C 145.247 321.030,144.460 321.660,143.800 322.063 C 143.140 322.467,142.828 322.798,143.106 322.799 C 143.608 322.800,146.829 320.032,146.349 320.011 C 146.211 320.005,145.851 320.299,145.549 320.665 M140.678 323.813 C 139.206 325.107,139.733 325.096,141.273 323.800 C 141.927 323.250,142.313 322.806,142.131 322.813 C 141.949 322.820,141.295 323.270,140.678 323.813 M56.770 325.900 L 55.800 327.000 57.000 326.000 C 57.660 325.450,58.275 324.955,58.367 324.900 C 58.458 324.845,58.355 324.800,58.136 324.800 C 57.918 324.800,57.303 325.295,56.770 325.900 M124.100 325.498 C 126.465 325.569,130.335 325.569,132.700 325.498 C 135.065 325.428,133.130 325.370,128.400 325.370 C 123.670 325.370,121.735 325.428,124.100 325.498 M92.500 325.876 C 92.885 325.976,93.515 325.976,93.900 325.876 C 94.285 325.775,93.970 325.693,93.200 325.693 C 92.430 325.693,92.115 325.775,92.500 325.876 M89.800 327.699 L 88.600 328.912 89.900 328.029 C 90.615 327.543,91.200 326.978,91.200 326.773 C 91.200 326.285,91.197 326.287,89.800 327.699 M53.200 329.600 C 52.503 330.480,52.023 331.200,52.133 331.200 C 52.243 331.200,52.903 330.480,53.600 329.600 C 54.297 328.720,54.777 328.000,54.667 328.000 C 54.557 328.000,53.897 328.720,53.200 329.600 M78.393 338.700 C 73.000 344.145,68.320 348.952,67.994 349.383 C 67.409 350.154,87.122 330.458,88.031 329.363 C 89.542 327.542,87.129 329.879,78.393 338.700 M48.278 334.554 C 47.465 335.299,46.800 336.122,46.800 336.383 C 46.800 336.645,42.501 341.210,37.246 346.529 C 23.746 360.195,24.006 359.793,24.623 366.000 C 24.981 369.601,25.148 369.993,27.279 372.246 C 29.698 374.804,31.827 375.600,36.247 375.600 C 41.101 375.600,41.233 375.504,53.400 363.206 C 57.800 358.759,62.229 354.553,63.243 353.860 C 64.257 353.167,65.607 351.971,66.243 351.202 L 67.400 349.804 65.730 351.112 C 64.675 351.938,63.961 352.261,63.793 351.989 C 63.646 351.751,62.553 351.127,61.363 350.601 C 60.173 350.075,59.200 349.486,59.200 349.293 C 59.200 348.808,52.271 341.773,51.261 341.233 C 50.811 340.992,49.905 339.673,49.247 338.302 L 48.050 335.810 49.045 334.505 C 50.310 332.847,50.129 332.859,48.278 334.554 " stroke="none" fill="#b17284" fill-rule="evenodd"></path><path id="path2" d="M316.400 24.150 C 315.850 24.435,314.320 24.915,313.000 25.218 L 310.600 25.767 287.387 48.984 C 259.750 76.626,262.697 73.203,264.718 75.307 C 275.906 86.952,276.268 87.477,275.872 91.455 C 275.456 95.629,273.515 97.571,269.428 97.899 C 265.307 98.229,264.562 97.792,257.934 91.147 C 254.671 87.876,251.883 85.200,251.736 85.200 C 251.590 85.200,250.069 86.595,248.356 88.300 C 246.643 90.005,244.863 91.760,244.401 92.200 C 243.395 93.157,243.233 93.318,242.200 94.390 C 239.336 97.361,236.341 100.288,235.640 100.800 C 235.188 101.130,234.659 102.138,234.465 103.039 L 234.112 104.679 238.973 109.639 C 248.279 119.136,248.977 121.282,244.269 125.932 C 240.897 129.262,237.546 129.443,234.146 126.481 C 230.681 123.461,224.800 117.677,224.800 117.288 C 224.800 116.246,220.346 116.021,219.516 117.021 C 219.106 117.515,213.043 123.593,210.472 126.087 C 202.660 133.667,202.660 132.849,210.461 140.701 C 217.057 147.340,217.443 148.113,216.473 152.745 C 215.220 158.724,207.080 159.611,202.030 154.318 C 197.818 149.906,192.540 144.800,192.189 144.800 C 192.070 144.800,190.828 145.950,189.429 147.356 C 188.029 148.762,186.613 150.067,186.282 150.256 C 185.950 150.445,184.642 151.770,183.374 153.200 C 182.107 154.630,179.794 156.925,178.235 158.301 C 173.726 162.279,173.605 164.910,177.810 167.563 C 178.300 167.872,178.982 168.601,179.326 169.182 C 179.669 169.763,180.411 170.485,180.975 170.786 C 181.539 171.088,182.000 171.457,182.000 171.606 C 182.000 171.755,182.675 172.565,183.500 173.405 C 184.325 174.245,185.270 175.420,185.600 176.016 C 185.930 176.612,186.522 177.667,186.916 178.361 C 187.733 179.800,187.536 181.865,186.458 183.172 C 186.096 183.611,185.285 184.709,184.655 185.612 C 182.600 188.558,175.851 189.080,174.987 186.360 C 174.862 185.964,174.409 185.530,173.981 185.394 C 173.097 185.113,166.156 178.331,165.118 176.733 C 164.132 175.215,160.997 174.956,160.049 176.315 C 159.692 176.826,157.711 178.899,155.648 180.922 C 153.584 182.945,151.514 184.997,151.048 185.483 C 150.581 185.968,148.878 187.714,147.263 189.363 L 144.325 192.361 144.792 193.775 C 145.066 194.604,145.745 195.477,146.436 195.885 C 147.083 196.267,147.834 197.079,148.104 197.690 C 148.374 198.300,148.774 198.800,148.992 198.800 C 149.583 198.800,156.420 206.054,156.838 207.126 C 158.010 210.126,156.744 214.810,154.450 215.965 C 151.441 217.480,145.564 217.308,144.162 215.664 C 143.850 215.299,142.381 213.774,140.897 212.276 C 139.414 210.778,137.930 209.265,137.600 208.915 C 137.270 208.564,136.673 207.990,136.273 207.639 C 135.873 207.287,134.917 206.390,134.148 205.645 L 132.751 204.291 131.275 205.641 C 130.464 206.384,129.170 207.561,128.400 208.257 C 126.882 209.630,126.334 210.172,122.808 213.800 C 121.525 215.120,119.468 217.170,118.237 218.355 C 117.007 219.540,116.000 220.729,116.000 220.997 C 116.000 221.264,115.564 221.954,115.031 222.528 L 114.063 223.574 115.431 224.419 C 116.184 224.885,116.807 225.566,116.815 225.933 C 116.824 226.300,117.409 226.962,118.115 227.404 C 118.822 227.846,119.560 228.566,119.756 229.004 C 119.951 229.442,120.671 230.162,121.356 230.604 C 122.040 231.046,122.778 231.811,122.995 232.304 C 123.212 232.797,123.589 233.200,123.833 233.200 C 124.513 233.200,125.539 234.502,126.059 236.026 C 126.317 236.782,126.844 237.809,127.229 238.310 C 128.590 240.076,125.676 245.908,122.840 247.093 C 120.310 248.150,116.995 247.625,115.433 245.919 C 114.715 245.136,113.748 244.374,113.284 244.227 C 112.820 244.079,112.327 243.602,112.189 243.165 C 112.050 242.728,111.231 241.924,110.368 241.380 C 109.506 240.835,108.800 240.236,108.800 240.049 C 108.800 239.861,107.847 238.715,106.682 237.503 C 103.938 234.647,101.663 234.044,100.514 235.867 C 100.121 236.490,98.761 237.990,97.492 239.200 C 96.223 240.410,94.243 242.358,93.092 243.529 C 91.941 244.699,89.947 246.679,88.660 247.929 C 86.578 249.950,85.198 251.373,80.527 256.320 C 79.799 257.090,78.956 258.640,78.561 259.934 C 78.181 261.180,77.584 262.740,77.235 263.400 C 76.686 264.438,76.572 267.518,76.393 286.200 C 76.139 312.625,77.234 308.839,66.839 319.253 C 62.527 323.572,58.164 327.982,57.143 329.053 C 56.121 330.124,54.089 332.156,52.627 333.570 C 51.008 335.134,50.052 336.359,50.184 336.702 C 50.303 337.012,50.404 337.746,50.408 338.333 C 50.414 339.147,51.089 339.999,53.250 341.921 C 54.809 343.307,57.185 345.692,58.530 347.221 C 62.659 351.913,61.760 352.392,76.345 337.748 C 83.765 330.300,89.108 325.249,89.975 324.865 C 91.127 324.353,93.966 324.171,104.800 323.912 C 123.383 323.467,133.119 322.989,135.000 322.428 C 135.880 322.165,137.913 321.643,139.517 321.268 C 141.864 320.718,142.529 320.391,142.922 319.592 C 143.190 319.047,143.975 318.350,144.666 318.045 C 145.357 317.739,146.117 317.061,146.355 316.539 C 146.593 316.016,147.254 315.376,147.824 315.116 C 148.394 314.857,149.120 314.142,149.437 313.529 C 149.754 312.915,150.529 312.147,151.160 311.821 C 151.790 311.495,152.412 310.808,152.541 310.294 C 152.678 309.747,153.360 309.081,154.188 308.687 C 154.964 308.316,155.600 307.734,155.600 307.393 C 155.600 307.052,156.211 306.413,156.957 305.972 C 157.704 305.532,158.537 304.635,158.808 303.981 C 159.096 303.285,159.702 302.689,160.265 302.548 C 160.794 302.415,161.485 301.809,161.799 301.201 C 162.114 300.594,163.007 299.721,163.785 299.262 C 164.563 298.803,165.200 298.145,165.200 297.800 C 165.200 297.455,165.812 296.812,166.561 296.370 C 167.309 295.929,168.027 295.147,168.156 294.634 C 168.291 294.095,168.906 293.487,169.614 293.194 C 170.287 292.915,171.097 292.185,171.414 291.572 C 171.732 290.959,172.360 290.340,172.811 290.197 C 173.261 290.054,174.076 289.231,174.620 288.368 C 175.165 287.506,175.860 286.800,176.166 286.800 C 176.471 286.800,177.103 286.152,177.571 285.360 C 178.038 284.568,178.783 283.825,179.226 283.709 C 179.669 283.593,180.303 282.973,180.635 282.332 C 180.967 281.690,181.683 280.997,182.226 280.790 C 182.770 280.583,183.388 279.957,183.601 279.397 C 183.814 278.838,184.620 278.007,185.394 277.551 C 186.167 277.094,186.800 276.463,186.800 276.147 C 186.800 275.831,187.437 275.197,188.215 274.738 C 188.993 274.279,189.891 273.398,190.210 272.780 C 190.530 272.162,191.140 271.546,191.567 271.411 C 191.993 271.275,192.720 270.524,193.181 269.742 C 193.643 268.960,194.383 268.225,194.826 268.109 C 195.269 267.993,195.894 267.391,196.215 266.772 C 196.535 266.152,197.291 265.408,197.895 265.119 C 198.499 264.829,199.229 264.099,199.519 263.495 C 199.808 262.891,200.552 262.135,201.172 261.815 C 201.791 261.494,202.393 260.869,202.509 260.426 C 202.625 259.983,203.339 259.255,204.097 258.808 C 204.854 258.361,205.671 257.562,205.912 257.032 C 206.154 256.503,206.709 255.956,207.147 255.817 C 207.584 255.678,208.320 254.924,208.781 254.142 C 209.243 253.360,209.983 252.625,210.426 252.509 C 210.869 252.393,211.494 251.791,211.815 251.172 C 212.135 250.552,212.891 249.808,213.495 249.519 C 214.099 249.229,214.829 248.499,215.119 247.895 C 215.408 247.291,216.152 246.535,216.772 246.215 C 217.391 245.894,217.993 245.269,218.109 244.826 C 218.225 244.383,218.960 243.643,219.742 243.181 C 220.524 242.720,221.275 241.993,221.411 241.567 C 221.546 241.140,222.162 240.530,222.780 240.210 C 223.398 239.891,224.279 238.993,224.738 238.215 C 225.197 237.437,225.831 236.800,226.147 236.800 C 226.463 236.800,227.094 236.167,227.551 235.394 C 228.007 234.620,228.838 233.814,229.397 233.601 C 229.957 233.388,230.588 232.758,230.800 232.200 C 231.012 231.642,231.642 231.012,232.200 230.800 C 232.758 230.588,233.388 229.957,233.601 229.397 C 233.814 228.838,234.620 228.007,235.394 227.551 C 236.167 227.094,236.800 226.471,236.800 226.166 C 236.800 225.860,237.506 225.165,238.368 224.620 C 239.231 224.076,240.054 223.261,240.197 222.811 C 240.340 222.360,240.971 221.725,241.600 221.400 C 242.229 221.075,242.860 220.440,243.003 219.989 C 243.146 219.539,243.955 218.733,244.800 218.200 C 245.645 217.667,246.440 216.908,246.567 216.515 C 246.694 216.122,247.340 215.492,248.003 215.117 C 248.665 214.741,249.378 213.984,249.586 213.436 C 249.795 212.887,250.478 212.173,251.105 211.849 C 251.732 211.525,252.451 210.805,252.705 210.249 C 252.958 209.693,253.700 208.962,254.354 208.624 C 255.008 208.285,255.662 207.636,255.806 207.180 C 255.951 206.724,256.503 206.154,257.032 205.912 C 257.562 205.671,258.352 204.869,258.788 204.131 C 259.224 203.392,260.019 202.621,260.556 202.417 C 261.093 202.213,261.645 201.689,261.784 201.252 C 261.922 200.815,262.659 200.090,263.421 199.641 C 264.183 199.191,265.005 198.388,265.248 197.855 C 265.490 197.323,266.125 196.654,266.658 196.369 C 267.192 196.083,267.849 195.390,268.118 194.828 C 268.387 194.267,269.111 193.566,269.727 193.270 C 270.343 192.975,271.052 192.285,271.302 191.737 C 271.551 191.189,272.269 190.475,272.895 190.151 C 273.522 189.827,274.242 189.107,274.495 188.551 C 274.749 187.995,275.451 187.284,276.055 186.971 C 276.660 186.659,277.392 185.909,277.681 185.305 C 277.971 184.701,278.723 183.960,279.353 183.658 C 279.983 183.356,280.589 182.762,280.700 182.339 C 280.811 181.915,281.416 181.302,282.044 180.977 C 282.672 180.652,283.463 179.853,283.800 179.200 C 284.137 178.547,284.938 177.742,285.578 177.411 C 286.219 177.080,286.859 176.445,287.000 176.000 C 287.141 175.555,287.781 174.920,288.422 174.589 C 289.062 174.258,289.858 173.462,290.189 172.822 C 290.520 172.181,291.155 171.541,291.600 171.400 C 292.045 171.259,292.680 170.619,293.011 169.978 C 293.342 169.338,294.158 168.532,294.824 168.188 C 295.490 167.843,296.227 167.140,296.461 166.625 C 296.696 166.110,297.324 165.490,297.856 165.247 C 298.388 165.005,299.196 164.175,299.651 163.403 C 300.106 162.631,300.737 162.000,301.053 162.000 C 301.369 162.000,302.003 161.363,302.462 160.585 C 302.921 159.807,303.802 158.909,304.420 158.590 C 305.038 158.270,305.654 157.660,305.789 157.233 C 305.925 156.807,306.657 156.091,307.418 155.643 C 308.178 155.194,308.800 154.545,308.800 154.200 C 308.800 153.855,309.422 153.206,310.182 152.757 C 310.943 152.309,311.678 151.585,311.816 151.148 C 311.955 150.712,312.665 150.070,313.395 149.722 C 314.125 149.374,314.912 148.673,315.143 148.166 C 315.374 147.658,316.013 146.948,316.562 146.588 C 317.111 146.229,317.923 145.319,318.366 144.567 C 318.810 143.815,319.455 143.200,319.800 143.200 C 320.145 143.200,320.794 142.578,321.243 141.818 C 321.691 141.057,322.417 140.321,322.857 140.182 C 323.296 140.043,323.985 139.387,324.388 138.724 C 324.790 138.062,325.678 137.181,326.360 136.766 C 327.042 136.351,327.600 135.741,327.600 135.411 C 327.600 135.080,328.306 134.365,329.168 133.820 C 330.031 133.276,330.850 132.472,330.989 132.035 C 331.127 131.598,331.598 131.127,332.035 130.989 C 332.472 130.850,333.276 130.031,333.820 129.168 C 334.365 128.306,335.084 127.600,335.419 127.600 C 335.753 127.600,336.399 126.969,336.855 126.197 C 337.310 125.426,338.115 124.686,338.643 124.553 C 339.198 124.414,339.865 123.763,340.221 123.012 C 340.561 122.296,341.283 121.508,341.827 121.260 C 342.371 121.013,342.984 120.369,343.189 119.829 C 343.394 119.290,343.953 118.639,344.431 118.383 C 345.594 117.761,349.352 114.028,349.950 112.900 C 350.213 112.405,350.690 112.000,351.009 112.000 C 351.329 112.000,352.044 111.280,352.600 110.400 C 353.156 109.520,353.856 108.800,354.158 108.800 C 354.459 108.800,355.176 108.182,355.752 107.427 C 356.328 106.672,357.159 105.940,357.599 105.800 C 358.038 105.661,358.511 105.097,358.649 104.547 C 358.790 103.986,359.581 103.117,360.450 102.568 C 361.303 102.030,362.000 101.319,362.000 100.989 C 362.000 100.658,362.612 100.095,363.361 99.738 C 364.110 99.381,364.912 98.673,365.143 98.166 C 365.374 97.658,366.031 96.936,366.602 96.562 C 367.173 96.187,367.910 95.360,368.240 94.723 C 368.569 94.087,369.289 93.394,369.839 93.185 C 370.409 92.968,371.022 92.282,371.263 91.590 C 371.496 90.922,372.174 90.124,372.770 89.816 C 374.514 88.914,375.384 81.304,374.369 75.818 C 373.931 73.445,373.947 73.469,369.837 69.200 C 369.096 68.430,367.824 66.900,367.011 65.800 C 362.646 59.894,327.785 26.110,325.362 25.438 C 324.063 25.077,322.409 24.516,321.686 24.191 C 320.085 23.470,317.747 23.452,316.400 24.150 M307.848 90.366 C 312.771 92.602,311.699 99.899,305.580 105.800 C 301.647 109.592,300.478 110.762,297.746 113.638 C 296.616 114.827,294.726 116.724,293.546 117.853 C 292.366 118.982,290.320 121.007,289.000 122.352 C 287.680 123.698,267.070 144.310,243.200 168.158 C 219.330 192.005,198.963 212.390,197.941 213.458 C 196.918 214.526,195.028 216.413,193.741 217.651 C 192.453 218.889,190.255 221.049,188.855 222.451 C 187.455 223.853,185.835 225.456,185.255 226.013 C 184.675 226.570,183.290 228.010,182.177 229.213 C 181.064 230.416,178.994 232.495,177.577 233.834 C 176.160 235.173,174.056 237.243,172.903 238.434 C 171.750 239.625,169.860 241.532,168.703 242.672 C 167.546 243.811,165.478 245.926,164.107 247.372 C 162.736 248.817,161.475 250.000,161.304 250.000 C 161.134 250.000,159.828 251.308,158.403 252.906 C 156.978 254.504,154.504 256.978,152.906 258.403 C 151.308 259.828,150.000 261.134,150.000 261.304 C 150.000 261.475,148.817 262.736,147.372 264.107 C 145.926 265.478,143.811 267.546,142.672 268.703 C 140.804 270.600,138.148 273.214,135.248 276.011 C 134.672 276.567,133.290 278.007,132.177 279.211 C 131.064 280.415,128.994 282.505,127.577 283.856 C 126.160 285.207,124.100 287.256,123.000 288.409 C 119.922 291.636,119.549 291.802,115.418 291.788 C 109.487 291.769,108.158 290.414,108.292 284.521 C 108.373 281.002,108.935 279.830,111.862 277.089 C 113.088 275.940,115.106 273.923,116.346 272.608 C 117.585 271.292,119.672 269.222,120.982 268.008 C 122.292 266.793,123.732 265.404,124.182 264.921 C 124.632 264.437,126.225 262.817,127.722 261.321 C 129.219 259.824,131.289 257.723,132.322 256.650 C 133.355 255.578,135.258 253.688,136.551 252.450 C 137.844 251.213,140.004 249.040,141.351 247.623 C 142.698 246.206,144.784 244.136,145.987 243.023 C 147.190 241.910,148.630 240.525,149.187 239.944 C 149.744 239.363,151.430 237.653,152.934 236.144 C 154.438 234.635,156.508 232.530,157.534 231.467 C 158.560 230.404,160.451 228.514,161.735 227.267 C 163.020 226.020,165.180 223.850,166.535 222.444 C 167.891 221.038,169.979 218.968,171.175 217.844 C 172.372 216.720,173.722 215.411,174.175 214.935 C 174.629 214.460,176.238 212.840,177.751 211.335 C 179.263 209.831,181.423 207.640,182.551 206.466 C 183.678 205.292,185.561 203.402,186.736 202.266 C 189.370 199.719,265.474 123.624,268.075 120.937 C 269.945 119.005,282.218 106.783,290.104 99.000 C 290.773 98.340,292.778 96.294,294.560 94.452 C 299.274 89.582,303.357 88.326,307.848 90.366 " stroke="none" fill="#f6f8f8" fill-rule="evenodd"></path><path id="path3" d="M314.854 21.975 C 314.113 22.163,313.033 22.668,312.454 23.097 C 311.874 23.525,310.708 24.126,309.863 24.432 C 307.957 25.121,263.188 69.671,261.937 72.123 L 261.156 73.655 262.153 75.327 C 262.701 76.247,265.096 79.015,267.475 81.477 C 274.433 88.679,274.400 88.636,274.400 90.621 C 274.400 93.167,271.261 96.400,268.789 96.400 C 266.214 96.400,265.542 95.889,257.901 88.117 C 251.511 81.618,252.536 81.325,240.749 93.025 C 229.276 104.414,229.500 103.164,237.500 111.154 C 244.177 117.824,244.856 119.027,243.876 122.457 C 243.213 124.777,239.965 126.687,238.113 125.846 C 237.501 125.569,236.420 125.085,235.712 124.771 C 235.004 124.457,232.012 121.815,229.064 118.900 C 221.429 111.351,222.689 111.104,211.433 122.358 C 199.523 134.266,199.709 132.811,208.910 142.116 C 215.838 149.122,216.522 150.894,213.530 154.086 C 209.949 157.906,205.050 155.718,197.558 146.951 C 194.757 143.675,192.570 142.484,190.920 143.339 C 188.896 144.387,172.471 160.962,172.189 162.240 C 172.048 162.878,171.857 163.642,171.765 163.938 C 171.596 164.476,173.770 166.800,174.442 166.800 C 174.639 166.800,174.800 166.986,174.800 167.212 C 174.800 167.546,177.874 170.676,183.252 175.816 C 185.679 178.136,184.645 183.524,181.427 185.322 L 179.729 186.272 177.803 185.342 C 176.744 184.831,175.575 184.140,175.207 183.806 C 174.838 183.473,174.429 183.200,174.297 183.200 C 173.906 183.200,166.800 176.046,166.800 175.652 C 166.800 174.924,161.487 172.442,160.938 172.915 C 159.563 174.100,145.946 187.714,144.317 189.532 L 142.034 192.080 142.777 194.036 C 143.287 195.378,144.256 196.674,145.860 198.159 C 148.488 200.592,149.079 201.192,151.513 203.897 C 152.455 204.943,153.656 206.250,154.183 206.800 C 156.987 209.732,154.895 214.548,150.529 215.211 C 148.095 215.580,145.521 214.747,144.772 213.348 C 144.473 212.789,143.737 212.078,143.137 211.767 C 142.536 211.457,141.810 210.712,141.522 210.113 C 141.235 209.514,140.640 208.833,140.200 208.601 C 139.760 208.369,138.306 207.081,136.969 205.740 C 132.396 201.154,132.797 200.993,121.931 211.800 C 111.696 221.981,110.690 223.617,113.610 225.342 C 114.261 225.727,114.993 226.413,115.235 226.866 C 115.737 227.803,122.362 234.412,123.673 235.282 C 124.416 235.776,124.561 236.327,124.715 239.262 L 124.893 242.670 123.147 244.097 C 120.556 246.214,119.236 246.235,116.800 244.200 C 115.878 243.430,114.882 242.800,114.585 242.800 C 114.288 242.800,113.735 242.275,113.357 241.634 C 112.978 240.993,112.256 240.281,111.753 240.051 C 111.250 239.822,110.575 239.126,110.253 238.503 C 109.932 237.881,109.206 237.124,108.641 236.822 C 108.076 236.519,107.516 235.964,107.396 235.589 C 107.067 234.551,105.808 233.567,104.329 233.191 C 103.598 233.006,102.604 232.733,102.119 232.585 C 100.924 232.221,78.733 254.357,77.567 257.076 C 77.164 258.016,76.422 259.344,75.917 260.026 L 75.000 261.266 74.800 284.567 L 74.600 307.867 73.251 309.434 C 72.508 310.295,67.013 315.950,61.039 322.000 C 49.661 333.521,47.749 335.671,48.213 336.421 C 48.395 336.715,48.743 336.496,49.199 335.801 C 49.587 335.211,55.329 329.268,61.959 322.595 C 69.535 314.971,74.235 309.936,74.607 309.044 C 75.103 307.858,75.203 304.395,75.218 287.913 C 75.244 257.913,74.125 261.127,90.201 244.879 L 101.402 233.559 103.107 233.832 C 104.514 234.057,105.213 234.529,107.106 236.533 C 116.250 246.216,118.755 247.746,122.429 245.893 C 127.283 243.445,127.111 237.255,122.060 232.641 C 120.663 231.364,118.618 229.303,117.515 228.060 C 116.412 226.817,114.959 225.329,114.285 224.753 C 113.105 223.745,113.079 223.655,113.598 222.353 C 114.209 220.817,130.077 204.794,131.942 203.830 L 133.109 203.227 139.254 209.266 C 146.761 216.644,148.841 217.620,152.778 215.611 C 158.466 212.709,157.345 207.578,149.454 200.400 C 144.722 196.096,142.669 192.975,143.692 191.641 C 143.962 191.288,147.928 187.241,152.507 182.648 L 160.831 174.295 162.667 174.547 C 164.360 174.779,164.873 175.168,169.214 179.499 C 177.681 187.949,180.049 188.864,183.611 185.065 C 187.570 180.844,186.727 178.295,178.672 170.124 L 172.682 164.049 173.751 161.864 C 174.339 160.662,175.221 159.407,175.710 159.075 C 176.200 158.743,179.777 155.321,183.661 151.471 C 193.195 142.018,191.369 142.038,200.513 151.284 C 207.203 158.047,212.582 158.808,215.218 153.362 C 216.997 149.688,216.353 148.316,209.639 141.476 C 202.231 133.930,202.035 133.508,204.643 130.691 C 211.814 122.945,220.523 114.739,221.341 114.959 C 221.813 115.085,222.585 115.192,223.057 115.195 C 223.613 115.198,225.668 116.938,228.914 120.154 C 232.738 123.942,234.528 125.410,236.519 126.390 L 239.123 127.672 240.861 126.888 C 247.442 123.921,247.135 119.742,239.781 112.175 C 232.203 104.378,232.717 105.052,233.039 103.326 C 233.375 101.531,250.165 84.400,251.588 84.400 C 252.488 84.400,254.222 85.895,260.275 91.890 C 266.486 98.040,269.356 98.776,273.039 95.161 C 274.775 93.458,274.800 93.396,274.800 90.736 C 274.800 87.647,275.038 87.991,266.700 78.994 C 261.988 73.909,261.874 73.633,263.550 71.360 C 266.567 67.267,309.408 25.283,311.008 24.850 C 311.884 24.613,312.960 24.168,313.400 23.859 C 315.703 22.246,322.508 22.161,324.358 23.722 C 324.711 24.021,325.900 24.596,327.000 25.000 C 328.984 25.730,363.883 59.954,371.664 68.800 C 376.637 74.453,378.173 80.242,376.052 85.336 C 375.364 86.991,374.800 88.626,374.800 88.970 C 374.800 90.219,367.769 97.339,274.754 190.280 C 130.033 334.887,144.670 320.449,140.753 322.453 L 137.400 324.169 127.000 324.447 C 121.280 324.601,111.096 324.743,104.369 324.763 L 92.137 324.800 90.369 325.973 C 89.396 326.618,83.381 332.382,77.002 338.782 C 70.623 345.183,64.919 350.634,64.326 350.897 C 63.516 351.255,63.352 351.502,63.670 351.884 C 64.307 352.652,65.948 351.197,77.935 339.231 C 83.801 333.376,89.410 327.916,90.400 327.098 L 92.200 325.610 101.800 325.603 C 130.242 325.581,139.069 325.183,140.698 323.849 C 141.304 323.352,142.430 322.705,143.200 322.411 C 144.188 322.033,162.500 304.005,205.400 261.176 C 238.840 227.791,289.926 176.834,318.924 147.938 C 347.922 119.042,372.132 94.635,372.724 93.701 C 373.316 92.766,373.946 92.001,374.125 92.001 C 374.304 92.000,374.991 90.875,375.651 89.500 C 376.312 88.125,377.150 86.460,377.514 85.800 C 378.773 83.519,378.190 74.800,376.778 74.800 C 376.600 74.800,376.330 74.395,376.179 73.900 C 375.178 70.618,373.908 69.221,352.088 47.385 C 334.527 29.812,329.383 24.884,328.159 24.458 C 327.302 24.160,325.924 23.460,325.098 22.903 C 323.447 21.788,317.648 21.263,314.854 21.975 M300.400 91.038 C 298.072 92.047,110.172 280.148,109.346 282.297 C 107.084 288.180,112.803 293.342,118.540 290.597 C 119.879 289.955,307.755 102.170,308.930 100.298 C 312.486 94.631,306.672 88.320,300.400 91.038 M306.220 91.647 C 308.534 92.229,309.864 96.967,308.433 99.527 C 308.184 99.972,132.048 276.306,121.354 286.817 C 117.302 290.798,116.055 291.216,112.484 289.787 C 109.883 288.746,108.971 283.670,110.963 281.331 C 113.185 278.723,300.445 91.792,301.092 91.536 C 302.176 91.107,304.256 91.152,306.220 91.647 " stroke="none" fill="#9a9ca4" fill-rule="evenodd"></path><path id="path4" d="M315.800 22.940 C 314.920 23.195,313.660 23.692,313.000 24.045 C 312.340 24.399,311.269 24.815,310.621 24.971 C 309.408 25.263,265.985 68.057,263.550 71.360 C 261.874 73.633,261.988 73.909,266.700 78.994 C 275.038 87.991,274.800 87.647,274.800 90.736 C 274.800 93.396,274.775 93.458,273.039 95.161 C 269.356 98.776,266.486 98.040,260.275 91.890 C 254.222 85.895,252.488 84.400,251.588 84.400 C 250.165 84.400,233.375 101.531,233.039 103.326 C 232.717 105.052,232.203 104.378,239.781 112.175 C 247.135 119.742,247.442 123.921,240.861 126.888 L 239.123 127.672 236.519 126.390 C 234.528 125.410,232.738 123.942,228.914 120.154 C 225.668 116.938,223.613 115.198,223.057 115.195 C 222.585 115.192,221.813 115.085,221.341 114.959 C 220.523 114.739,211.814 122.945,204.643 130.691 C 202.035 133.508,202.231 133.930,209.639 141.476 C 216.353 148.316,216.997 149.688,215.218 153.362 C 212.582 158.808,207.203 158.047,200.513 151.284 C 191.369 142.038,193.195 142.018,183.661 151.471 C 179.777 155.321,176.200 158.743,175.710 159.075 C 175.221 159.407,174.339 160.662,173.751 161.864 L 172.682 164.049 178.672 170.124 C 186.727 178.295,187.570 180.844,183.611 185.065 C 180.049 188.864,177.681 187.949,169.214 179.499 C 164.873 175.168,164.360 174.779,162.667 174.547 L 160.831 174.295 152.507 182.648 C 147.928 187.241,143.962 191.288,143.692 191.641 C 142.669 192.975,144.722 196.096,149.454 200.400 C 157.345 207.578,158.466 212.709,152.778 215.611 C 148.841 217.620,146.761 216.644,139.254 209.266 L 133.109 203.227 131.942 203.830 C 130.077 204.794,114.209 220.817,113.598 222.353 C 113.079 223.655,113.105 223.745,114.285 224.753 C 114.959 225.329,116.412 226.817,117.515 228.060 C 118.618 229.303,120.663 231.364,122.060 232.641 C 127.111 237.255,127.283 243.445,122.429 245.893 C 118.755 247.746,116.250 246.216,107.106 236.533 C 105.213 234.529,104.514 234.057,103.107 233.832 L 101.402 233.559 90.201 244.879 C 74.125 261.127,75.244 257.913,75.218 287.913 C 75.203 304.395,75.103 307.858,74.607 309.044 C 74.235 309.936,69.523 314.984,61.919 322.636 C 55.266 329.330,49.568 335.229,49.256 335.744 C 48.512 336.970,49.636 340.147,51.163 341.135 C 52.449 341.967,59.200 348.818,59.200 349.290 C 59.200 349.787,62.412 351.181,63.581 351.191 C 64.339 351.198,67.304 348.461,76.613 339.160 C 83.242 332.539,89.442 326.599,90.393 325.960 L 92.120 324.800 104.360 324.763 C 111.092 324.743,121.280 324.601,127.000 324.447 L 137.400 324.169 140.753 322.453 C 144.670 320.449,130.033 334.887,274.754 190.280 C 367.769 97.339,374.800 90.219,374.800 88.970 C 374.800 88.626,375.364 86.991,376.052 85.336 C 378.173 80.242,376.637 74.453,371.664 68.800 C 363.883 59.954,328.984 25.730,327.000 25.000 C 325.900 24.596,324.717 24.026,324.372 23.736 C 322.991 22.572,318.514 22.157,315.800 22.940 M321.686 24.191 C 322.409 24.516,324.063 25.077,325.362 25.438 C 327.785 26.110,362.646 59.894,367.011 65.800 C 367.824 66.900,369.096 68.430,369.837 69.200 C 373.947 73.469,373.931 73.445,374.369 75.818 C 375.384 81.304,374.514 88.914,372.770 89.816 C 372.174 90.124,371.496 90.922,371.263 91.590 C 371.022 92.282,370.409 92.968,369.839 93.185 C 369.289 93.394,368.569 94.087,368.240 94.723 C 367.910 95.360,367.173 96.187,366.602 96.562 C 366.031 96.936,365.374 97.658,365.143 98.166 C 364.912 98.673,364.110 99.381,363.361 99.738 C 362.612 100.095,362.000 100.658,362.000 100.989 C 362.000 101.319,361.303 102.030,360.450 102.568 C 359.581 103.117,358.790 103.986,358.649 104.547 C 358.511 105.097,358.038 105.661,357.599 105.800 C 357.159 105.940,356.328 106.672,355.752 107.427 C 355.176 108.182,354.459 108.800,354.158 108.800 C 353.856 108.800,353.156 109.520,352.600 110.400 C 352.044 111.280,351.329 112.000,351.009 112.000 C 350.690 112.000,350.213 112.405,349.950 112.900 C 349.352 114.028,345.594 117.761,344.431 118.383 C 343.953 118.639,343.394 119.290,343.189 119.829 C 342.984 120.369,342.371 121.013,341.827 121.260 C 341.283 121.508,340.561 122.296,340.221 123.012 C 339.865 123.763,339.198 124.414,338.643 124.553 C 338.115 124.686,337.310 125.426,336.855 126.197 C 336.399 126.969,335.753 127.600,335.419 127.600 C 335.084 127.600,334.365 128.306,333.820 129.168 C 333.276 130.031,332.472 130.850,332.035 130.989 C 331.598 131.127,331.127 131.598,330.989 132.035 C 330.850 132.472,330.031 133.276,329.168 133.820 C 328.306 134.365,327.600 135.080,327.600 135.411 C 327.600 135.741,327.042 136.351,326.360 136.766 C 325.678 137.181,324.790 138.062,324.388 138.724 C 323.985 139.387,323.296 140.043,322.857 140.182 C 322.417 140.321,321.691 141.057,321.243 141.818 C 320.794 142.578,320.145 143.200,319.800 143.200 C 319.455 143.200,318.810 143.815,318.366 144.567 C 317.923 145.319,317.111 146.229,316.562 146.588 C 316.013 146.948,315.374 147.658,315.143 148.166 C 314.912 148.673,314.125 149.374,313.395 149.722 C 312.665 150.070,311.955 150.712,311.816 151.148 C 311.678 151.585,310.943 152.309,310.182 152.757 C 309.422 153.206,308.800 153.855,308.800 154.200 C 308.800 154.545,308.178 155.194,307.418 155.643 C 306.657 156.091,305.925 156.807,305.789 157.233 C 305.654 157.660,305.038 158.270,304.420 158.590 C 303.802 158.909,302.921 159.807,302.462 160.585 C 302.003 161.363,301.369 162.000,301.053 162.000 C 300.737 162.000,300.106 162.631,299.651 163.403 C 299.196 164.175,298.388 165.005,297.856 165.247 C 297.324 165.490,296.696 166.110,296.461 166.625 C 296.227 167.140,295.490 167.843,294.824 168.188 C 294.158 168.532,293.342 169.338,293.011 169.978 C 292.680 170.619,292.045 171.259,291.600 171.400 C 291.155 171.541,290.520 172.181,290.189 172.822 C 289.858 173.462,289.062 174.258,288.422 174.589 C 287.781 174.920,287.141 175.555,287.000 176.000 C 286.859 176.445,286.219 177.080,285.578 177.411 C 284.938 177.742,284.137 178.547,283.800 179.200 C 283.463 179.853,282.672 180.652,282.044 180.977 C 281.416 181.302,280.811 181.915,280.700 182.339 C 280.589 182.762,279.983 183.356,279.353 183.658 C 278.723 183.960,277.971 184.701,277.681 185.305 C 277.392 185.909,276.660 186.659,276.055 186.971 C 275.451 187.284,274.749 187.995,274.495 188.551 C 274.242 189.107,273.522 189.827,272.895 190.151 C 272.269 190.475,271.551 191.189,271.302 191.737 C 271.052 192.285,270.343 192.975,269.727 193.270 C 269.111 193.566,268.387 194.267,268.118 194.828 C 267.849 195.390,267.192 196.083,266.658 196.369 C 266.125 196.654,265.490 197.323,265.248 197.855 C 265.005 198.388,264.183 199.191,263.421 199.641 C 262.659 200.090,261.922 200.815,261.784 201.252 C 261.645 201.689,261.093 202.213,260.556 202.417 C 260.019 202.621,259.224 203.392,258.788 204.131 C 258.352 204.869,257.562 205.671,257.032 205.912 C 256.503 206.154,255.951 206.724,255.806 207.180 C 255.662 207.636,255.008 208.285,254.354 208.624 C 253.700 208.962,252.958 209.693,252.705 210.249 C 252.451 210.805,251.732 211.525,251.105 211.849 C 250.478 212.173,249.795 212.887,249.586 213.436 C 249.378 213.984,248.665 214.741,248.003 215.117 C 247.340 215.492,246.694 216.122,246.567 216.515 C 246.440 216.908,245.645 217.667,244.800 218.200 C 243.955 218.733,243.146 219.539,243.003 219.989 C 242.860 220.440,242.229 221.075,241.600 221.400 C 240.971 221.725,240.340 222.360,240.197 222.811 C 240.054 223.261,239.231 224.076,238.368 224.620 C 237.506 225.165,236.800 225.860,236.800 226.166 C 236.800 226.471,236.167 227.094,235.394 227.551 C 234.620 228.007,233.814 228.838,233.601 229.397 C 233.388 229.957,232.758 230.588,232.200 230.800 C 231.642 231.012,231.012 231.642,230.800 232.200 C 230.588 232.758,229.957 233.388,229.397 233.601 C 228.838 233.814,228.007 234.620,227.551 235.394 C 227.094 236.167,226.463 236.800,226.147 236.800 C 225.831 236.800,225.197 237.437,224.738 238.215 C 224.279 238.993,223.398 239.891,222.780 240.210 C 222.162 240.530,221.546 241.140,221.411 241.567 C 221.275 241.993,220.524 242.720,219.742 243.181 C 218.960 243.643,218.225 244.383,218.109 244.826 C 217.993 245.269,217.391 245.894,216.772 246.215 C 216.152 246.535,215.408 247.291,215.119 247.895 C 214.829 248.499,214.099 249.229,213.495 249.519 C 212.891 249.808,212.135 250.552,211.815 251.172 C 211.494 251.791,210.869 252.393,210.426 252.509 C 209.983 252.625,209.243 253.360,208.781 254.142 C 208.320 254.924,207.584 255.678,207.147 255.817 C 206.709 255.956,206.154 256.503,205.912 257.032 C 205.671 257.562,204.854 258.361,204.097 258.808 C 203.339 259.255,202.625 259.983,202.509 260.426 C 202.393 260.869,201.791 261.494,201.172 261.815 C 200.552 262.135,199.808 262.891,199.519 263.495 C 199.229 264.099,198.499 264.829,197.895 265.119 C 197.291 265.408,196.535 266.152,196.215 266.772 C 195.894 267.391,195.269 267.993,194.826 268.109 C 194.383 268.225,193.643 268.960,193.181 269.742 C 192.720 270.524,191.993 271.275,191.567 271.411 C 191.140 271.546,190.530 272.162,190.210 272.780 C 189.891 273.398,188.993 274.279,188.215 274.738 C 187.437 275.197,186.800 275.831,186.800 276.147 C 186.800 276.463,186.167 277.094,185.394 277.551 C 184.620 278.007,183.814 278.838,183.601 279.397 C 183.388 279.957,182.770 280.583,182.226 280.790 C 181.683 280.997,180.967 281.690,180.635 282.332 C 180.303 282.973,179.669 283.593,179.226 283.709 C 178.783 283.825,178.038 284.568,177.571 285.360 C 177.103 286.152,176.471 286.800,176.166 286.800 C 175.860 286.800,175.165 287.506,174.620 288.368 C 174.076 289.231,173.261 290.054,172.811 290.197 C 172.360 290.340,171.732 290.959,171.414 291.572 C 171.097 292.185,170.287 292.915,169.614 293.194 C 168.906 293.487,168.291 294.095,168.156 294.634 C 168.027 295.147,167.309 295.929,166.561 296.370 C 165.812 296.812,165.200 297.455,165.200 297.800 C 165.200 298.145,164.563 298.803,163.785 299.262 C 163.007 299.721,162.114 300.594,161.799 301.201 C 161.485 301.809,160.794 302.415,160.265 302.548 C 159.702 302.689,159.096 303.285,158.808 303.981 C 158.537 304.635,157.704 305.532,156.957 305.972 C 156.211 306.413,155.600 307.052,155.600 307.393 C 155.600 307.734,154.964 308.316,154.188 308.687 C 153.360 309.081,152.678 309.747,152.541 310.294 C 152.412 310.808,151.790 311.495,151.160 311.821 C 150.529 312.147,149.754 312.915,149.437 313.529 C 149.120 314.142,148.394 314.857,147.824 315.116 C 147.254 315.376,146.593 316.016,146.355 316.539 C 146.117 317.061,145.357 317.739,144.666 318.045 C 143.975 318.350,143.190 319.047,142.922 319.592 C 142.529 320.391,141.864 320.718,139.517 321.268 C 137.913 321.643,135.880 322.165,135.000 322.428 C 133.119 322.989,123.383 323.467,104.800 323.912 C 93.966 324.171,91.127 324.353,89.975 324.865 C 89.108 325.249,83.765 330.300,76.345 337.748 C 61.760 352.392,62.659 351.913,58.530 347.221 C 57.185 345.692,54.809 343.307,53.250 341.921 C 51.089 339.999,50.414 339.147,50.408 338.333 C 50.404 337.746,50.303 337.012,50.184 336.702 C 50.052 336.359,51.008 335.134,52.627 333.570 C 54.089 332.156,56.121 330.124,57.143 329.053 C 58.164 327.982,62.527 323.572,66.839 319.253 C 77.234 308.839,76.139 312.625,76.393 286.200 C 76.572 267.518,76.686 264.438,77.235 263.400 C 77.584 262.740,78.181 261.180,78.561 259.934 C 78.956 258.640,79.799 257.090,80.527 256.320 C 85.198 251.373,86.578 249.950,88.660 247.929 C 89.947 246.679,91.941 244.699,93.092 243.529 C 94.243 242.358,96.223 240.410,97.492 239.200 C 98.761 237.990,100.121 236.490,100.514 235.867 C 101.663 234.044,103.938 234.647,106.682 237.503 C 107.847 238.715,108.800 239.861,108.800 240.049 C 108.800 240.236,109.506 240.835,110.368 241.380 C 111.231 241.924,112.050 242.728,112.189 243.165 C 112.327 243.602,112.820 244.079,113.284 244.227 C 113.748 244.374,114.715 245.136,115.433 245.919 C 116.995 247.625,120.310 248.150,122.840 247.093 C 125.676 245.908,128.590 240.076,127.229 238.310 C 126.844 237.809,126.317 236.782,126.059 236.026 C 125.539 234.502,124.513 233.200,123.833 233.200 C 123.589 233.200,123.212 232.797,122.995 232.304 C 122.778 231.811,122.040 231.046,121.356 230.604 C 120.671 230.162,119.951 229.442,119.756 229.004 C 119.560 228.566,118.822 227.846,118.115 227.404 C 117.409 226.962,116.824 226.300,116.815 225.933 C 116.807 225.566,116.184 224.885,115.431 224.419 L 114.063 223.574 115.031 222.528 C 115.564 221.954,116.000 221.264,116.000 220.997 C 116.000 220.729,117.007 219.540,118.237 218.355 C 119.468 217.170,121.525 215.120,122.808 213.800 C 126.334 210.172,126.882 209.630,128.400 208.257 C 129.170 207.561,130.464 206.384,131.275 205.641 L 132.751 204.291 134.148 205.645 C 134.917 206.390,135.873 207.287,136.273 207.639 C 136.673 207.990,137.270 208.564,137.600 208.915 C 137.930 209.265,139.414 210.778,140.897 212.276 C 142.381 213.774,143.850 215.299,144.162 215.664 C 145.564 217.308,151.441 217.480,154.450 215.965 C 156.744 214.810,158.010 210.126,156.838 207.126 C 156.420 206.054,149.583 198.800,148.992 198.800 C 148.774 198.800,148.374 198.300,148.104 197.690 C 147.834 197.079,147.083 196.267,146.436 195.885 C 145.745 195.477,145.066 194.604,144.792 193.775 L 144.325 192.361 147.263 189.363 C 148.878 187.714,150.581 185.968,151.048 185.483 C 151.514 184.997,153.584 182.945,155.648 180.922 C 157.711 178.899,159.692 176.826,160.049 176.315 C 160.997 174.956,164.132 175.215,165.118 176.733 C 166.156 178.331,173.097 185.113,173.981 185.394 C 174.409 185.530,174.862 185.964,174.987 186.360 C 175.851 189.080,182.600 188.558,184.655 185.612 C 185.285 184.709,186.096 183.611,186.458 183.172 C 187.536 181.865,187.733 179.800,186.916 178.361 C 186.522 177.667,185.930 176.612,185.600 176.016 C 185.270 175.420,184.325 174.245,183.500 173.405 C 182.675 172.565,182.000 171.755,182.000 171.606 C 182.000 171.457,181.539 171.088,180.975 170.786 C 180.411 170.485,179.669 169.763,179.326 169.182 C 178.982 168.601,178.300 167.872,177.810 167.563 C 173.605 164.910,173.726 162.279,178.235 158.301 C 179.794 156.925,182.107 154.630,183.374 153.200 C 184.642 151.770,185.950 150.445,186.282 150.256 C 186.613 150.067,188.029 148.762,189.429 147.356 C 190.828 145.950,192.070 144.800,192.189 144.800 C 192.540 144.800,197.818 149.906,202.030 154.318 C 207.080 159.611,215.220 158.724,216.473 152.745 C 217.443 148.113,217.057 147.340,210.461 140.701 C 202.660 132.849,202.660 133.667,210.472 126.087 C 213.043 123.593,219.106 117.515,219.516 117.021 C 220.346 116.021,224.800 116.246,224.800 117.288 C 224.800 117.677,230.681 123.461,234.146 126.481 C 237.546 129.443,240.897 129.262,244.269 125.932 C 248.977 121.282,248.279 119.136,238.973 109.639 L 234.112 104.679 234.465 103.039 C 234.659 102.138,235.188 101.130,235.640 100.800 C 236.341 100.288,239.336 97.361,242.200 94.390 C 243.233 93.318,243.395 93.157,244.401 92.200 C 244.863 91.760,246.643 90.005,248.356 88.300 C 250.069 86.595,251.590 85.200,251.736 85.200 C 251.883 85.200,254.671 87.876,257.934 91.147 C 264.562 97.792,265.307 98.229,269.428 97.899 C 273.515 97.571,275.456 95.629,275.872 91.455 C 276.268 87.477,275.906 86.952,264.718 75.307 C 262.697 73.203,259.750 76.626,287.387 48.984 L 310.600 25.767 313.000 25.218 C 314.320 24.915,315.850 24.435,316.400 24.150 C 317.747 23.452,320.085 23.470,321.686 24.191 M299.400 90.361 C 298.520 90.770,296.342 92.611,294.560 94.452 C 292.778 96.294,290.773 98.340,290.104 99.000 C 282.218 106.783,269.945 119.005,268.075 120.937 C 265.474 123.624,189.370 199.719,186.736 202.266 C 185.561 203.402,183.678 205.292,182.551 206.466 C 181.423 207.640,179.263 209.831,177.751 211.335 C 176.238 212.840,174.629 214.460,174.175 214.935 C 173.722 215.411,172.372 216.720,171.175 217.844 C 169.979 218.968,167.891 221.038,166.535 222.444 C 165.180 223.850,163.020 226.020,161.735 227.267 C 160.451 228.514,158.560 230.404,157.534 231.467 C 156.508 232.530,154.438 234.635,152.934 236.144 C 151.430 237.653,149.744 239.363,149.187 239.944 C 148.630 240.525,147.190 241.910,145.987 243.023 C 144.784 244.136,142.698 246.206,141.351 247.623 C 140.004 249.040,137.844 251.213,136.551 252.450 C 135.258 253.688,133.355 255.578,132.322 256.650 C 131.289 257.723,129.219 259.824,127.722 261.321 C 126.225 262.817,124.632 264.437,124.182 264.921 C 123.732 265.404,122.292 266.793,120.982 268.008 C 119.672 269.222,117.585 271.292,116.346 272.608 C 115.106 273.923,113.088 275.940,111.862 277.089 C 108.935 279.830,108.373 281.002,108.292 284.521 C 108.158 290.414,109.487 291.769,115.418 291.788 C 119.549 291.802,119.922 291.636,123.000 288.409 C 124.100 287.256,126.160 285.207,127.577 283.856 C 128.994 282.505,131.064 280.415,132.177 279.211 C 133.290 278.007,134.672 276.567,135.248 276.011 C 138.148 273.214,140.804 270.600,142.672 268.703 C 143.811 267.546,145.926 265.478,147.372 264.107 C 148.817 262.736,150.000 261.475,150.000 261.304 C 150.000 261.134,151.308 259.828,152.906 258.403 C 154.504 256.978,156.978 254.504,158.403 252.906 C 159.828 251.308,161.134 250.000,161.304 250.000 C 161.475 250.000,162.736 248.817,164.107 247.372 C 165.478 245.926,167.546 243.811,168.703 242.672 C 169.860 241.532,171.750 239.625,172.903 238.434 C 174.056 237.243,176.160 235.173,177.577 233.834 C 178.994 232.495,181.064 230.416,182.177 229.213 C 183.290 228.010,184.675 226.570,185.255 226.013 C 185.835 225.456,187.455 223.853,188.855 222.451 C 190.255 221.049,192.453 218.889,193.741 217.651 C 195.028 216.413,196.918 214.526,197.941 213.458 C 198.963 212.390,219.330 192.005,243.200 168.158 C 267.070 144.310,287.680 123.698,289.000 122.352 C 290.320 121.007,292.366 118.982,293.546 117.853 C 294.726 116.724,296.616 114.827,297.746 113.638 C 300.478 110.762,301.647 109.592,305.580 105.800 C 310.571 100.986,311.743 97.710,310.148 93.028 C 309.049 89.804,303.541 88.437,299.400 90.361 M306.800 90.954 C 309.519 91.912,310.764 97.375,308.930 100.298 C 307.755 102.170,119.879 289.955,118.540 290.597 C 112.803 293.342,107.084 288.180,109.346 282.297 C 110.172 280.148,298.072 92.047,300.400 91.038 C 302.076 90.312,304.873 90.275,306.800 90.954 " stroke="none" fill="#a8aab2" fill-rule="evenodd"></path></g></svg>